<svg width="35" height="41" viewBox="0 0 35 41" fill="none" xmlns="http://www.w3.org/2000/svg">
<rect width="35" height="40.122" rx="1.88394" fill="white"/>
<path fill-rule="evenodd" clip-rule="evenodd" d="M3.1357 1.80695C2.62935 1.94505 2.18393 2.35582 1.91154 2.93594L1.70899 3.36752L1.70813 19.9209L1.70728 36.4742L1.95621 36.9681C2.2482 37.5474 2.63191 37.9634 3.11473 38.2241L3.46157 38.4114L17.1536 38.4381C26.9017 38.4571 30.9718 38.4374 31.2839 38.3696C31.8839 38.2394 32.4289 37.8695 32.7568 37.3701C33.3123 36.5244 33.2764 37.7087 33.2889 19.8156C33.3 3.8741 33.2966 3.5064 33.1347 3.13896C32.8973 2.60001 32.5559 2.22773 32.0539 1.96067L31.6158 1.72754L17.5815 1.71114C6.29316 1.69793 3.46661 1.71666 3.1357 1.80695ZM16.4332 4.44646C16.6039 4.44646 16.5109 5.27741 16.2901 5.72435C16.012 6.28721 15.596 6.63696 14.938 6.86112C14.3178 7.07233 13.7553 7.08191 12.8656 6.89625C12.0442 6.72491 11.4574 6.77566 10.8867 7.06732C10.3633 7.3349 10.0888 7.65349 9.69409 8.45181C9.30035 9.24798 9.02865 9.53904 8.67925 9.53904C8.53078 9.53904 8.22913 9.59376 8.00894 9.66057C7.78867 9.72746 7.51183 9.75603 7.39374 9.72418C7.181 9.66678 7.18254 9.66316 7.56104 9.34405C7.86432 9.08839 8.05053 8.79958 8.46317 7.94463C9.2977 6.21591 10.1415 5.46644 11.7672 5.01009C12.2446 4.87613 12.3265 4.87536 12.8065 5.00077C13.721 5.23986 14.5755 5.13991 15.3993 4.69755C15.8763 4.44145 16.0936 4.36765 16.2407 4.41202C16.3033 4.43101 16.39 4.44646 16.4332 4.44646ZM19.5033 4.70359C20.2589 5.08829 21.0229 5.1904 21.8525 5.01734C22.8566 4.80794 22.9882 4.82805 24.022 5.35009C24.8191 5.75257 25.0469 5.91778 25.5676 6.47063C25.9666 6.89435 26.2951 7.35139 26.5153 7.78952C26.727 8.21065 27.062 8.68253 27.4157 9.05818C27.7254 9.38704 27.9788 9.6881 27.9788 9.72712C27.9788 9.82862 27.81 9.81576 27.1498 9.66376C25.8857 9.37288 25.9627 9.41785 25.5657 8.73786C24.6302 7.13577 23.4326 6.50179 22.1169 6.91239C21.1245 7.22209 20.0157 7.04195 19.3436 6.46165C18.9655 6.13512 18.48 5.25997 18.48 4.90479C18.48 4.38388 18.7653 4.32777 19.5033 4.70359ZM30.5742 5.07224C30.6027 5.36899 30.6368 5.68939 30.6501 5.78434C30.6733 5.94885 30.6188 5.95809 29.4904 5.98105L28.3064 6.00513L27.7538 5.403C27.4498 5.07189 27.1161 4.77186 27.0123 4.7363C26.8353 4.67571 26.8395 4.66803 27.0803 4.61244C27.2215 4.5799 28.0538 4.54857 28.9298 4.54296L30.5226 4.53277L30.5742 5.07224ZM7.40196 5.3513L6.68253 6.08342L5.59709 6.028L4.51174 5.9725L4.56429 5.58581C4.59321 5.37322 4.61683 5.0687 4.61683 4.9091V4.61909H6.36906H8.1213L7.40196 5.3513ZM16.7294 9.41949C16.6448 9.87532 16.0372 10.6383 15.5675 10.8784C15.0753 11.13 14.4191 11.1625 13.8589 10.9632C13.3874 10.7954 12.8883 10.7987 12.5261 10.972C12.1884 11.1337 11.8773 11.7215 11.6816 12.5678C11.6131 12.864 11.4978 13.166 11.4254 13.239C11.2284 13.4377 10.2647 13.4789 9.9159 13.3034C9.54972 13.1191 8.85049 13.1299 8.42158 13.3264C7.9985 13.5202 7.3987 14.1894 7.26444 14.6173C7.14403 15.0011 6.9734 15.1495 6.65215 15.1495C6.32114 15.1495 6.21152 14.8414 6.28674 14.123C6.4015 13.0278 6.80738 12.3948 7.65474 11.9895C8.19353 11.7319 9.33364 11.698 9.80918 11.9256C10.101 12.0654 10.1111 12.0638 10.3257 11.8474C10.4704 11.7014 10.5677 11.4789 10.6128 11.1908C10.7103 10.5689 11.2563 9.78685 11.8298 9.44746C12.2738 9.1848 12.2798 9.18385 13.1743 9.24289C14.8986 9.35674 15.0463 9.34405 15.6239 9.03245C15.9121 8.87692 16.278 8.63989 16.4369 8.50576L16.7257 8.26192L16.7525 8.70627C16.7672 8.95063 16.7568 9.27163 16.7294 9.41949ZM30.5673 9.69009C30.5423 10.4616 30.4941 11.0927 30.4603 11.0927C30.3928 11.0927 30.0326 10.1918 30.0326 10.0231C30.0326 9.96543 29.8771 9.59376 29.6868 9.19706C29.4967 8.80035 29.3715 8.44517 29.4087 8.40779C29.4587 8.35756 30.153 8.28747 30.6009 8.28747C30.6074 8.28747 30.5924 8.91869 30.5673 9.69009ZM5.91757 8.46632C5.66795 8.64274 5.28149 9.42122 5.04085 10.2326C4.93577 10.587 4.83102 10.9102 4.80817 10.9509C4.6894 11.162 4.61931 10.6667 4.61811 9.60826L4.61683 8.42601L5.0661 8.39424C6.163 8.3169 6.13279 8.31431 5.91757 8.46632ZM18.7413 8.63661C18.941 8.80484 19.274 9.04273 19.4812 9.16529C19.8325 9.37297 19.9057 9.3841 20.5596 9.33007C22.3372 9.18316 22.4986 9.17928 22.788 9.2756C23.6073 9.54836 24.3245 10.5117 24.44 11.4945C24.5131 12.1183 24.5563 12.1666 24.9071 12.0191C25.0669 11.9519 25.5057 11.8489 25.8822 11.7902C26.56 11.6847 26.5724 11.686 27.1231 11.9361C27.7387 12.2155 28.2393 12.7052 28.499 13.2819C28.6159 13.5419 28.6602 13.8426 28.6616 14.3874L28.6634 15.1358L28.4118 15.1915C28.0609 15.2693 27.8547 15.1301 27.7379 14.7369C27.5233 14.0146 26.8115 13.3277 26.0848 13.1417C25.846 13.0805 25.6218 13.104 25.121 13.2426C24.2144 13.4935 23.9407 13.4795 23.5843 13.1638C23.3385 12.9461 23.2747 12.8109 23.1871 12.3223C22.9654 11.0851 22.1915 10.5178 21.2692 10.9166C20.7313 11.1492 19.9579 11.1522 19.5132 10.9234C18.9848 10.6514 18.498 9.94394 18.3036 9.16547C18.2178 8.82159 18.2422 8.33063 18.3451 8.33063C18.3634 8.33063 18.5416 8.4683 18.7413 8.63661ZM17.9547 12.5484C18.5685 13.0642 19.2283 13.3999 19.988 13.583C20.7932 13.7769 21.0075 13.8776 21.1376 14.1227C21.2761 14.3836 21.8174 16.3571 21.8174 16.6008C21.8174 16.7773 21.7876 16.8005 21.6249 16.7506C20.2945 16.3426 19.4095 16.5359 18.7758 17.373C18.2569 18.0586 18.2233 18.3054 18.2233 21.435C18.2233 24.0021 18.2107 24.2463 18.0735 24.3514C17.9683 24.4319 17.6109 24.4669 16.8733 24.4688L15.8229 24.4715L15.7336 24.7085C15.5417 25.2176 15.9436 25.6042 16.873 25.8044C17.1772 25.87 17.3219 26.1338 17.19 26.3824C17.0994 26.5532 17.046 26.5628 16.4674 26.5136C15.7544 26.4528 15.2341 26.5746 14.7088 26.9252C14.2711 27.2174 14.1107 27.555 14.0547 28.303C13.9848 29.2346 14.2435 29.3576 14.9756 28.7406C15.1683 28.5782 15.4676 28.4076 15.6408 28.3615C15.8139 28.3153 16.7338 28.2786 17.6851 28.2799L19.4146 28.2822L19.7521 28.5132C20.186 28.8101 20.7359 29.4831 21.0193 30.0642C21.2389 30.5144 21.2414 30.5415 21.1949 31.92C21.1391 33.5717 21.0156 34.0801 20.5626 34.5239C20.2988 34.7824 19.5057 35.1746 19.2469 35.1746C19.1993 35.1746 19.1646 34.7814 19.1646 34.2406C19.1646 33.3917 19.1431 33.2643 18.9293 32.8423C18.6397 32.2712 18.327 32.028 17.8821 32.028C17.499 32.028 17.1639 32.2872 17.0689 32.6567C17.0363 32.7835 16.9843 33.3986 16.9532 34.0237C16.9223 34.6489 16.8693 35.1881 16.8356 35.222C16.7131 35.3454 15.7514 35.0534 15.3765 34.7789C15.0524 34.5416 14.9724 34.4183 14.8135 33.9106C14.7116 33.5851 14.5775 33.0858 14.5154 32.8009C14.4222 32.3734 14.3691 32.2781 14.2113 32.2548C13.728 32.1834 13.4311 32.7318 13.4311 33.6957C13.4311 33.9869 13.4097 34.2251 13.3836 34.2251C13.3575 34.2251 13.0975 34.063 12.8059 33.8648C12.0682 33.3635 11.2976 32.5377 10.6553 31.56C10.0047 30.5696 9.73576 29.9476 9.4466 28.7644C9.23181 27.8854 9.23052 27.8553 9.17824 22.7831C9.12604 17.7056 9.12655 17.6828 9.3137 17.0612C9.6471 15.9541 10.2075 15.5872 11.8208 15.4197C12.3069 15.3692 12.7366 15.276 12.8603 15.1943C13.0855 15.0455 13.4234 14.5804 13.614 14.1569C13.7197 13.9221 13.8429 13.861 14.9327 13.5029C15.8292 13.2083 16.308 12.9947 16.8154 12.663C17.1897 12.4184 17.5098 12.2175 17.5268 12.2165C17.5438 12.2156 17.7363 12.3649 17.9547 12.5484ZM13.1316 16.5202C12.5003 16.6865 12.0712 16.9553 11.7184 17.4054C11.2788 17.9665 11.1861 18.0346 10.6467 18.1931C10.3942 18.2673 10.211 18.3741 10.195 18.4566C10.1137 18.8737 10.9133 19.8033 11.8051 20.3283C12.5786 20.7836 12.9245 20.878 13.609 20.8201C14.4332 20.7504 14.8077 20.6151 15.3382 20.195C16.4006 19.3541 16.4404 18.1804 15.4408 17.172C14.9206 16.6473 13.8239 16.3377 13.1316 16.5202ZM7.78311 17.0024C7.78311 17.0245 7.60871 17.2407 7.39554 17.4829C7.18229 17.725 6.90322 18.0856 6.77538 18.2842C6.54561 18.6411 6.54261 18.6426 6.51583 18.4108C6.47783 18.0826 6.71487 17.6241 7.10758 17.2662C7.38715 17.0115 7.78311 16.8568 7.78311 17.0024ZM27.8466 17.2015C28.3861 17.5009 28.6192 17.8809 28.535 18.3237L28.474 18.6453L28.3334 18.4319C28.256 18.3145 27.9906 17.9892 27.7435 17.7089C27.3366 17.2473 27.1873 16.9588 27.3584 16.9641C27.3938 16.9652 27.6134 17.0721 27.8466 17.2015ZM5.00183 19.7674C5.07919 20.0997 5.23203 20.8019 5.34148 21.3278C5.45093 21.8538 5.63825 22.4788 5.75772 22.7167C5.98295 23.1649 6.44343 23.6377 6.75056 23.736C6.92316 23.7913 6.92736 23.8451 6.92736 25.9878V28.1831H5.86469C5.28021 28.1831 4.74108 28.1595 4.66663 28.1307C4.54529 28.0837 4.53185 27.5676 4.53733 23.146C4.54341 18.2239 4.54375 18.2146 4.70232 18.6884C4.78969 18.9495 4.92447 19.435 5.00183 19.7674ZM30.5889 23.1985V28.1399L29.3266 28.1638L28.0644 28.1876V25.9543V23.7209L28.3993 23.5686C29.1285 23.2369 29.4943 22.6152 29.7779 21.2252C29.8729 20.7593 30.0611 20.0271 30.1962 19.598C30.3312 19.1689 30.4683 18.6916 30.5007 18.5374C30.5332 18.3831 30.5663 18.2568 30.5742 18.2569C30.5823 18.2569 30.5889 20.4807 30.5889 23.1985ZM21.7589 20.4261C22.1773 20.6448 22.7039 21.1553 22.8531 21.4867C22.9817 21.7723 23.0121 22.0563 23.0136 22.9875C23.016 24.4668 22.9245 24.8434 22.4848 25.1647C21.8837 25.6038 21.3114 25.5791 20.8508 25.0941C20.4438 24.6656 20.3616 24.249 20.3727 22.6696C20.3842 21.0537 20.4123 20.8615 20.683 20.5496C20.8301 20.3801 20.9565 20.3284 21.2234 20.3284C21.4151 20.3284 21.656 20.3723 21.7589 20.4261ZM16.4994 29.4769C16.0134 29.9672 16.341 30.484 17.2138 30.6034C18.2495 30.7451 18.9504 30.4058 18.8911 29.7912C18.8517 29.3822 18.4584 29.2192 17.5107 29.219C16.786 29.2188 16.745 29.2293 16.4994 29.4769ZM7.18408 31.2606V31.9214L5.92502 31.8637C5.23246 31.8319 4.64002 31.7774 4.60836 31.7424C4.57678 31.7075 4.57036 31.4572 4.59415 31.1864L4.63737 30.6939L5.16194 30.6635C5.4505 30.6468 6.02351 30.6257 6.4353 30.6165L7.18408 30.5999V31.2606ZM30.6317 31.2604V31.9208L29.7198 31.8646C29.2183 31.8336 28.5829 31.8083 28.3078 31.8083H27.8077V31.2041V30.5999H29.2197H30.6317V31.2604ZM30.6317 34.743V35.2609H29.348H28.0644V35.0127C28.0644 34.8763 28.0885 34.6432 28.1179 34.4948L28.1714 34.2251H29.4015H30.6317V34.743ZM7.01293 34.7301V35.1488L5.89763 35.2082C5.28423 35.2408 4.74511 35.2443 4.69958 35.2159C4.65405 35.1876 4.61683 34.9725 4.61683 34.7379V34.3114H5.81488H7.01293V34.7301Z" fill="#112233"/>
</svg>
