<svg xmlns="http://www.w3.org/2000/svg" width="1024" height="1024"><path d="M287 646c4.928.456 9.078 1.583 13-2 7.02 12.719-2.184 25.971 1.605 38.661 2.278 7.627 11.792 14.146 16.17 20.858 3.443 5.278 7.728 23.2 9.225 29.481-2.41-.913-10.501-4.928-11.71-.528-.925 3.364 11.488 7.638 13.533 11.08 8.036 13.527.689 30.996 10.819 43.804 3.137 3.966 9.712 2.608 13.53 6.288 5.279 5.088 2.699 13.569 8.642 18.291 4.876 3.875 10.865.297 15.63 3.079 6.355 3.71 9.356 12.261 15.254 16.884C414.004 848.599 431.375 860.182 446 884c-24.746-1.827-56.674-12.019-73.408-31.291-19.467-22.42-27.511-52.193-49.755-74.102-7.359-7.248-18.757-25.042-22.419-34.609-1.112-2.906-4.862-13.24-9.09-12.577-2.851.446 9.132 20.097 11.672 22.579-5.519 10.766 12.757 31.789 17.91 40.457 15.725 26.453 24.026 54.858 42.472 79.073 6.325 8.302 27.424 42.62 26.618 19.47 28.399 5.535 38.365 53.303 63 17-2.618-1.559-5.15-2.916-8-4 2.305-5.347 4.05-15.882 8.78-19.521 12.306-9.467 45.81-8.708 54.926 6.207 1.868 3.056-3.364 8.356-2.933 12.179 1.27 11.269 4.461 19.831 4.227 32.135-14.596-13.688-10.511-41.312-34.283-48.134-3.504-1.005-7.288 2.058-9.967 3.93-17.484 12.217-4.457 14.383-4.311 31.204.037 4.201-5.793 9.597-4.163 13.417 1.196 2.804 35.297 15.126 39.724 15.583-19.32 6.045-45.099 2.068-65 .478-2.134-.17-20.213-.874-18.894 1.984 1.688 3.662 17.367 2.537 20.894 2.538 13.391.005 46.015-1.877 57 5 15.063-7.51 47.171-1.99 64-2v-3c-12.703 0-25.302-.954-38-1.001-1.681-.006-13.142.068-9.776-4.292 2.381-3.083 9.055-1.852 12.453-3.027 18.58-6.426 36.424 1.606 54.084-3.151 9.593-2.584 14.43-31.958 25.195-31.345 6.197.354 15.045 27.156 19.408 32.311 1.977 2.337 8.092 8.732 10.814 3.881 2.872-5.12-2.501-13.356-3.632-18.409-1.655-7.402-1.419-19.863-5.282-26.11-8.694-14.06-19.796-16.052-18.932-34.82.733-15.904 22.15-20.972 16.85-37.558-4.737-14.825 1.695-27.761-3.987-41.302-.863-2.057-7.883-13.301-5.426-14.456 3.162-1.485 6.25 6.749 7.285 8.588 5.907 10.496 7.741 23.057 14.205 33.244 2.077 3.274 6.466.765 8.944 4.62 15.992 24.885 21.639 60.871 29.559 88.885 1.975 6.988 4.135 31.155 12.339 33.117 7.099 1.698 7.643-7.343 6.359-11.855-4.469-15.703-9.312-31.304-13.009-47.245-3.102-13.376-9.096-29.197-14.248-41.898C652.586 827.4 646.042 803.478 634 787c4.613-1.595 9.62.436 13.756-2.431 4.009-2.779 5.58-12.552 11.206-12.429 19.425.424 35.976 27.815 41.523 42.162 4.248 10.986 16.528 19.575 19.59 30.007 2.136 7.274-1.305 19.678-1.049 27.672.529 16.484 3.426 33.418 5.085 49.941 1.788 17.82 7.662 36.245 7.882 54.078.055 4.526 3.036 13.245-.287 16.821-5.245 5.646-33.043 2.072-40.706 1.396-37.656-3.321-72.238 2.951-110-.217 2.672 6.75 15.898 3.973 22 4.001 17.318.08 34.166 6.219 50.941 9.979 7.607 1.7 13.86 7.97 20.059.02 13.951 11.2 36.342-5.76 53.911-3.68 9.894 1.17 4.169 15.15 11.564 18.87 8.669 4.36 26.846.81 36.525.81-11.738-9.07-10.548-17.57-16.209-30.302-15.666-35.223-19.382-76.075-24.949-113.716-1.835-12.401-8.12-24.505-8.762-36.982-.158-3.062-.848-11.96 4.06-11.897 8.259.107 9.247 19.496 11.763 25.037 5.079 11.19 11.516 19.612 14.093 31.938 1.528 7.31-3.34 15.257.255 21.883 3.302 6.086 10.806 9.324 15.568 14.215C779.006 931.557 785.872 944.1 797 938c-4.471-6.219-6.155-13.404-10-20 3.679-3.058 2.528-6.511-.447-9.856-6.474-7.277-16.154-15.545-19.034-25.206-2.533-8.499.726-20.395-5.336-26.963-1.87-2.026-19.85-16.352-15.304-19.469 2.438-1.672 12.211 6.6 15.143 7.592 27.382 9.262 24.43 51.931 40.779 71.678 6.514 7.867 18.362 27.894 29.206 28.82 11.15.954 9.896-24.447 13.902-21.101 17.715 14.793 28.803 53.885 38.594 74.447 3.671 7.708 4.88 20.558 13.231 25.238 6.272 3.52 20.138.82 27.266.82-9.625-12.33-13.483-32.654-24-43 2.335-3.948 1.478-6.853 0-11 8.901 2.248 10.142 18.176 17 24-.146-7.651-.15-25.941-4.281-32.123-7.376-11.036-13.661-5.621-22.366-9.675-9.709-4.521-16.764-15.231-24.194-22.593-6.159-6.103-12.606-25.358-21.472-27.582-3.575-.897-2.132 10.326-6.148 11.69-2.444.831-31.89-7.758-32.949-10.035-3.883-8.344 17.376-5.234 17.308-12.732-.125-13.731-16.698-17.611-24.652-24.532-3.322-2.891-8.49-9.184-3.116-12.513 24.608-15.244 59.268 11.712 75.457 29.344 15.351 16.719 42.183 22.797 52.709 46.969 4.056 9.316-6.077 14.586-5.316 22.66.964 10.214 8.817 28.75 14.589 38.214 2.157 3.537 7.868 5.488 9.133 9.008 2.759 7.68-6.847 15.15-1.956 22.08 2.699 3.82 14.122 1.82 18.254 1.82h47c3.96 0 13.71 1.77 16.74-1.26 6.59-6.59 1.26-41.262 1.26-50.74V57c0-10.277 5.84-48.645-1.26-55.74C1018.41-3.07 999.947 0 994 0H44C34.086 0 10.175-4.462 1.822.822-4.135 4.59 0 36.949 0 44v697c0 10.341-4.683 35.465.814 44.168 2.647 4.191 14.89-2.616 18.403-3.63 18.582-5.359 37.402-9.054 55.794-14.268 53.704-15.223 102.982-38.897 151.131-66.042 6.186-3.488 13.465-2.133 19.342-5.89 6.642-4.246 17.317-7.407 22.461-13.415 4.194-4.899 3.41-12.298 8.387-17.445 5.473-5.659 6.27 3.693 11.409 2.464 10.146-2.426 3.004-16.721-.741-20.942z" fill="#020202"/><path d="M339 143c7.435 2.176 8.839 9.217 15.368 12.335 3.255 1.555 5.921-1.901 9.298-.337 10.45 4.84 23.033 13.32 35.41 12.963 5.756-.166 6.726-10.247 11.472-12.837 6.046-3.3 14.946.84 21.452.876-2.846 5.392-9.48 9.485-11.264 15.156-3.48 11.058 6.899 22.19-10.736 25.844 2.405 3.535 5.789 6.195 9 9 7.06-6.023 37.545 4.335 34-19 11.888-1.576 23.985.154 30 12-6.956-.705-12.005-5.473-19-6 4.494 4.667 19.337 23.691 27.212 19.053 4.809-2.833 1.946-15.229 9.52-14.084 1.692.256 7.638 14.771 13.268 18.031 5.997-1.21 17.815-12.135 21.87-11.763 7.969.732 8.493 17.439 14.675 21.28 7.906 4.912 14.846-4.007 22.455-4.517-4.908-18.502 22.915 15.732 24.133 3.78.928-9.099-24.126-12.272-16.133-28.78-6.244-3.677-19.205-6.625-24.637-.083-1.621 1.951-3.829 17.504-6.887 16.365-9.693-3.61-3.234-16.302-4.413-22.038-.062-.301-21.57-24.152-1.063-14.244 1.844-2.955 3.636-5.787 5-9 18.104 16.191 26.969-14.379 46.117-8.472 14.116 4.355-3.187 22.895 12.743 21.919 5.579-.341 4.562-12.252 6.14-16.447 1.21 1.333 11.563 23.96 14.799 14.612 1.179-3.405-5.328-8.268-.306-11.091 5.124-2.88 16.079 8.535 15.774 13.45-.762 12.255-33.291 3.872-29.041 20.79.747 2.974 3.373 5.527 4.774 8.239-3.917-.281-17.985-11.238-19-14 3.339-.254 11.354-4.253 5.681-7.971-3.478-2.28-20.079.945-21.363 5.196-2.639 8.735 5.484 18.877 12.14 23.641 6.493 4.646 29.643 7.114 37.392 5.801 6.287-1.064 5.5-7.672 14.146-6.478 9.24 1.276 12.061 12.768 19.004 17.811l1-1c-9.178-13.174 24.882-17.701 17-36 5.031 1.558 15.455 3.847 17.817-3.356 3.968-12.104-8.04-10.725-9.877-17.831-1.888-7.298 4.085-15.37 2.392-21.717-4.511-16.908-38.899-17.889-51.741-15.601-5.877 1.048-5.748-5.398-5.591-9.495-5.822.238-11.47-.059-17 2 1.611-18.597-10.269-17.518-23.557-23.156-21.973-9.322-41.842-9.316-64.384-14.713-11.73-2.809-23.682-1.335-35.032-3.657-5.787-1.183-11.462-6.054-17.622-4.699-13.748 3.024-22.547 17.277-36.514 16.949-17.627-.416-31.41-15.11-51.459-6.884-12.125 4.974-6.877 17.222-15.523 22.227-12.131 7.023-47.879.964-47.542 25.898.086 6.393 6.953 4.307 8.633.035z" fill="#fdfdfd"/><path d="M442 104c-9.693 13.467 5.581 16.13 16 10-4.335-4.425-10.841-6.537-16-10z" fill="#020202"/><path d="M630.333 119.667c-.055.055-.111 1.111.334.666.055-.055.111-1.111-.334-.666z" fill="#fdfdfd"/><path d="M450 121c-11.209 17.6 8.544 24.091 18.717 33.36 5.663 5.161-3.658 6.691-.083 11.857 3.099 4.478 33.124 13.975 38.295 13.433 11.149-1.168 14.87-10.748 18.005-19.514.581-1.623 5.638-8.088 3.148-9.378-5.101-2.64-18.53 16.397-26.558 4.648-4.663-6.823 10.611-26.629.083-30.721-6.144-2.388-21.997 5.69-24.716 11.008-1.329 2.601 7.337 10.239 2.899 10.144-16.589-.357-21.663-15.963-29.79-24.837m-50.684 3.152c-6.66 2.676-8.039 19.369-.766 15.838 2.867-1.391 8.146-18.802.766-15.838M514 124c1.353 3.66 3.201 4.548 7 5-1.864-2.985-3.567-4.224-7-5m26.379 1.321c-10.094 3.179-7.649 17.188 3.113 13.568 7.283-2.45 2.146-15.224-3.113-13.568M571 133c12.576 7.338 7.533-19.265 0 0m-202.935-5.902c-21.271 2.941 11.818 32.818 17.996 31.321 25.397-6.156-7.802-20.005-12.549-23.152-2.922-1.939-.893-8.799-5.447-8.169M582 127v3h2v-3h-2m9.978 4.079c-14.674 1.713 7.979 27.126 13.864 26.969 18.514-.492-6.989-27.771-13.864-26.969M421 133c-6.991 9.751 1.831 12.489 2 0h-2m201 1c-4.289 10.023 8.532 10.357 0 0m-106 10c3.552-.437 5.554-1.38 8-4-3.893-.228-6.443.223-8 4m-82-1c1.378 11.072 25.141 24.112 30 11-10.957-1.17-20.039-7.198-30-11z" fill="#020202"/><path d="M488 143l1 1-1-1m-236 56c15.245-9.14 27.026-26.835 48-28-2.933 5.427-15.308 13.448-6.871 20.288 2.442 1.98 8.095-1.306 8.968 2.103.006.024-11.586 25.638-1.807 21.204 3.255-1.476 2.912-8.117 4.386-10.955 3.884-7.482 22.967-28.557 32.83-22.024 11.402 7.554-22.015 21.887-22.636 25.582-.981 5.831 11.632 16.514 17.305 12.978 4.168-2.598-1.6-8.029-1.441-11.253.3-6.113 11.64-13.811 17.322-14.24 3.631-.275 11.959 5.166 11.382 9.277-.524 3.73-12.525 9.513-8.192 13.74 2.341 2.283 7.046-1.472 9.211-2.442 7.913-3.546 43.114 1.135 30.543 11.742 1.755 4.18-.707 9.814 1.241 13.046 3.903 6.479 11.513 9.583 14.759 16.954-7.188-1.438-12.285-6.572-19.998-6.819C375.096 249.799 343.469 265.21 341 277c7.655-.712 17.519-1.852 24.775 1.38 4.341 1.935 10.526 9.913 15.665 7.378 6.428-3.169 20.616-10.2 25.773-14.042 4.087-3.044 4.546-9.118 9.894-10.508 12.846-3.339 17.951 11.527 30.831 9.585 6.1-.92 9.528-17.019 4.19-16.222-5.293.79-5.811 9.022-12.034 8.269-6.025-.73-24.002-25.129-25.24-31.065-.666-3.192 9.854-12.051 4.372-14.807-5.929-2.98-6.314 14.854-13.991 11.955-2.918-1.102-1.804-21.485-9.736-27.356-7.994-5.918-17.971-1.577-27.106-6.22-5.82-2.958-.451-10.553-5.439-14.507-3.062-2.428-15.066-3.403-19.755-5.139-5.711-2.115-24.243-2.747-25.902-9.859-1.268-5.436 8.592-12.849 9.703-18.842-11.81 4.5-25.207 2.513-36.713 5.262C272.238 156.573 253.943 180.253 252 199z" fill="#fdfdfd"/><path d="M653 148v2c2.361.52 4.588.843 7 1-1.719-3.267-3.452-3.637-7-3m-4.175 4.408c-6.983 5.222 1.1 32.258 9.886 23.351 1.443-1.463-9.645-23.532-9.886-23.351m41.508 4.259c-.055.055-.111 1.111.334.666.055-.055.111-1.111-.334-.666M566 163c2.68-.744 3.719-1.529 5-4-2.936.627-4.013 1.147-5 4m97.475-1.895c-6.064 2.553-2.121 20.19 6.153 17.124 7.33-2.715.739-20.026-6.153-17.124M549 166c1.994-1.536 2.41-2.536 3-5-3.03.856-3.283 1.919-3 5z" fill="#020202"/><path d="M513 166c2.364-.482 2.518-.636 3-3-2.124.899-2.101.876-3 3z" fill="#fdfdfd"/><path d="M431 170h9c-18.627 11.233 5.988 11.002 8.676 3.495 3.181-8.882-13.255-10.386-17.676-3.495m-166 10c5.813-1.17 11.438-5.623 14-11-6.239 1.151-12.593 4.384-14 11m265-9c-7.494 2.764-.649 8.718 0 0m-229 19c16.695-8.613.097-15.775 0 0z" fill="#020202"/><path d="M721 254c1.635.545 1.455.365 2 2l3-2c2.582 9.922 16.863 3.668 1-3 4.83-4.544 10.582-15.284 7.042-22.179-2.189-4.266-13.287-4.688-5.145-12.786 4.219-4.197 11.25 8.608 14.213 11.251 15.443 13.773 8.984 18.618 14.594 35.332 1.799 5.358 8.026 8.045 10.296 13.382 8.017-2.971 5.084-14.985 2.656-21.242-2.928-7.545-10.42-12.938-12.971-20.018-5.28-14.651-6.083-33.007-17.144-45.718-5.293-6.084-23.938-10.24-29.078-1.396-2.647 4.554 4.427 13.138 5.252 17.573.713 3.833-4.513 4.686-3.611 8.712 3.732 16.677 16.777 22.697 7.896 40.089z" fill="#fdfdfd"/><path d="M637 203c-1.462-11.085-9.594-2.059 0 0z" fill="#020202"/><path d="M238.413 198.145c-3.614 1.448-11.332 6.656-11.597 10.939-.17 2.74 3.955 10.173 7.46 8.549 4.103-1.901 14.867-23.789 4.137-19.488z" fill="#fdfdfd"/><path d="M675.435 197.881c-6.816 2.298-22.897 22.514-9.963 18.326 5.352-1.733 24.563-23.247 9.963-18.326z" fill="#020202"/><path d="M472 209v2h3v-2h-3m22 11v4c2.535-1.585 2.535-2.415 0-4m8 6c2.094-.749 2.677-1.206 4-3-2.177.741-2.723 1.103-4 3m192-3c1.571 1.824 2.869 2.886 5 4-.987-2.853-2.064-3.373-5-4m-82 3l3 1-3-1m-273.215 2.264c-3.252 1.82-2.907 8.91 1.689 6.55 3.739-1.92 2.193-8.723-1.689-6.55M218 263c-4.478-7.241-1.234-11.273 6-16 .609 19.653 23.583 18.189 35.742 20.7 4.098.846 5.316 8.461 9.953 7.372 5.521-1.298 4.936-12.963 11.411-13.926 5.743-.854 5.303 15.788 10.561 14.173 4.573-1.404 10.194-15.262 15.134-18.833 7.549-5.457 14.538 2.365 20.892-.491 7.287-3.276-.578-8.548-4.693-8.995 1.974-2.763 3.666-3.457 7-4-10.096-13.292-41.787-10.857-53.481-1.331-7.457 6.075-11.722 16.498-22.614 17.999-5.284.728-9.449-5.759-6.814-10.269 2.657-4.55 9.379-5.072 11.697-9.293 4.2-7.651-16.503-9.145-20.722-8.723-6.945.694-22.645 9.826-25.945 16.152-3.429 6.572-3.36 17.156 5.879 15.465z" fill="#fdfdfd"/><path d="M242 240c2.662.586 4.338.586 7 0-2.52-2.842-4.48-2.842-7 0z" fill="#020202"/><path d="M633 240l3 3 1-1c-1.363-1.483-1.973-1.637-4-2m44 3c-1.143 1.782-1.594 2.921-2 5 2.149-1.551 2.681-2.405 2-5m-38 1c.909 3.274 2.104 5.198 5 7-.776-3.433-2.015-5.136-5-7m-173.182 10.337c-2.171 1.446.444 3.967 2.284 2.404 1.763-1.497-.611-3.519-2.284-2.404z" fill="#fdfdfd"/><path d="M377 273c20.393-7.483-16.947-20.464-7.08-7.91 2.33 2.964 5.226 4.445 7.08 7.91z" fill="#020202"/><path d="M725.378 271.23c-1.961 2.018 2.277 6.191 4.376 4.392 2.626-2.25-2.032-6.805-4.376-4.392M306 278c1.405 2.306 2.694 3.596 5 5-1.055-2.901-2.099-3.945-5-5m413 2c.113 9.732 11.193 3.478 0 0M409 431v-5c-14.236 5.784-17.436 32.704-12.256 45.618 1.995 4.975 11.173 9.996 8.322 16.955-1.831 4.47-12.651-.441-16.166 2.687-5.941 5.284 1.573 15.355-11.9 9.74-5.163 5.99-6.435 8.593-3 16-4.828-.993-10.457-6.911-15.465-5.037-10.795 4.041-19.867 23.479-3.632 27.76 6.13 1.616 12.523-7.113 17.3-8.003 7.456-1.389 14.7 7.966 22.591 5.628 9.529-2.824-1.37-11.701.879-15.663 4.447-7.831 20.169 9.547 24.327 11.315 5.503-8.174-2.812-18.432 2.604-24.223 6.135-6.558 20.137-9.155 28.394-11.601 17.627-5.221 21.742-13.176 42.219-7.092 4.468 1.328 16.565-1.614 18.358 4.243 1.962 6.408-10.973 12.584-14.693 15.878-13.149 11.644-16.399 20.05-34.018 25.813-7.938 2.597-23.288-2.541-28.396 4.994-12.632 18.632 29.907 25.011 26.445 36.571-2.965 9.9-16.9.236-21.553 1.603-3.561 1.046-17.857 16.312-19.97 19.601-13.339 20.752 15.096 10.206 18.985 19.708.619 1.512-10.643 13.702-11.351 18.796-.67 4.814 23.887 16.502 30.402 14.347 6.82-2.255 1.959-19.759 3.04-23.273 1.787-5.809 24.617-27.449 30.534-27.365-.864 1.688-1.478 3.18-2 5 7.87.012 13.679.703 19 7-7.118.011-11.075 1.168-17 5 7.828 9.378 13.086-2.203 20.255-4.506 10.174-3.269 34.085.895 31.745-17.494-1.347.586-11.232 6.629-11.376 2.791-.351-9.294 16.823-5.103 20.996-6.396 8.578-2.658 16.169-12.805 24.705-16.782 8.67-4.039 16.107.882 25.81-6.516 3.009-2.294 14.149-17.506 13.054-20.756-2.005-5.949-20.265-7.675-26.189-11.395-3.793-2.382-15.066-11.803-18.382-12.34-14.91-2.413-43.804 53.04-60.618 29.394 31.51-6.132 42.295-47.455 66.498-61.941 6.593-3.946 17.993-1.92 25.502-2.059-4.186 6.056-12.795 7.533-16.855 13.795-4.455 6.873.363 16.9 8.863 16.576 11.887-.454 22.725-7.744 34.088-8.878 7.652-.763 25.23 5.533 33.458 7.497 4.223 1.007 13.541-4.378 16.067-.481 6.588 10.161-13.145 16.207-16.3 20.383-1.232 1.631.762 19.071 1.395 21.835 1.387 6.047 32.507 40.145 35.077 37.864 16.263-14.426-1.45-25.391 2.792-42.541 1.813-7.325 18.187-13.026 8.261-22.839-8.346-8.251-16.047 47.067-23.721 32.62-1.374-2.587-11.094-25.226-10.628-25.987 2.451-3.998 16.022 9.336 18.068-5.917 4.051-30.185-28.46-69.21-41.909-94.511-3.828-7.203-8.032-25.075-16.928-27.527-3.12-.86-10.871 12.114-12.365 15.25-5.111 10.727-29.187 27.557-40.599 32.165-11.379 4.595-39.049 20.363-51.539 16.639-15.513-4.625-27.844-24.014-43.247-29.161-12.738-4.257-49.162-7.171-47.044-28.723 1.368-13.92 22.297-24.739 33.746-28.563 29.259-9.772 63.197-27.653 95.246-27.422 11.921.086 34.36 17.18 45.074 5.926 6.359 3.765 13.935-5.425 19.895-.733 1.999 1.574-4.696 5.955-5.66 7.082-5.422 6.34 6.377 26.128 13.911 21.984 6.46-3.554-.524-22.708.574-24.688 1.236-2.23 6.332-.907 8.408-2.606 7.434-6.084 16.447-14.712 26.872-16.039-.958 3.872-5.769 9.007-5.296 12.768.604 4.801 12.566 10.252 14.482 3.844 1.256-4.203-5.557-11.594-7.186-15.612 8.202 3.43 12.441 14.588 22 13l-3-6c10.698.978 12.64 21.765 24 17-5.067-9.704-9.122-19.513-15.994-28.216-2.883-3.65-9.086-4.223-8.006-9.784-9.017-7.248-6.4-17.937 0-7 6.339-6.971-1.915-11.08-2.094-18.007-.109-4.241 4.414-7.509 3.49-11.768-1.224-5.637-20.019-22.798-26.217-21.724-8.806 1.527-15.344 10.771-24.217 11.969-6.838.924-29.562-2.149-34.334 5.332-2.926 4.586 5.32 10.148 8.391 12.035 11.664 7.166 23.029 3.526 33.755 6.329 6.359 1.662 3.467 9.101-.338 11.715-10.129 6.958-8.396-1.667-15.798-4.388-8.264-3.037-19.748.328-27.111-5.732-3.22-2.65-.733-8.166-2.663-11.842-7.003-13.34-23.095-25.175-38.375-17.995-14.255 6.698 6.008 14.739-5.421 21.686-13.75 8.357-35.113-.738-49.504 4.548-24.208 8.893-38.275 33.425-56.18 50.229-5.306 4.98-12.963 6.258-18.324 11.293-6.482 6.088-18.947 22.838-22.702 30.683-4.845 10.121-.091 17.358-12.358 23.637m-70.714-147.12c-2.819 1.085-18.058 11.949-11.542 15.159-.631-.311 31.077-6.547 31.63-6.857 7.454-4.19-15.894-9.916-20.088-8.302m-55.284 1.439c-2.044 1.749-.478 6.168 2.238 4.284 2.507-1.738.44-6.576-2.238-4.284M232 309c-6.308 10.365-7.066 13.163-2 24l5-2c.365 23.581 3.53-14.047 7.402-15.574 9.071-3.577 3.046 16.728 13.281 13.856 4.759-1.335 32.554-22.238 29.406-25.028-7.91-7.01-23.01 9.576-29.089 12.746 2.918-8.054 12.305-16.566 20-20-1.805-3.396-4.952-6.478-9.007-4.259-6.715 3.673-16.723 16.367-24.089 16.622-6.13.212-8.161-6.905-13.162-8.699-4.351-1.562-8.068 3.315-12.672 2.578-2.837-.454-8.259-4.216-10.989-1.921-1.887 1.587 2.202 10.311 4.263 11.023 8.044 2.781 14.789.892 21.656-3.344m143-18c-.854 1.976-1.639 3.341-3 5 3.698.496 4.526-1.643 5-5h-2m332 3c.749 10.382 9.33 3.305 0 0m-364.53 4.906c-4.344 1.567-17.57 16.562-7.525 14.344 5.025-1.109 19.891-18.804 7.525-14.344M320 321c-5.605 1.811-12.246-2.661-18.008-3.429-3.321-.442-6.662-.757-9.992-1.131-5.917-.666-20.631 3.96-8.532 8.636 6.699 2.589 40.546 4.829 36.532-4.076m433-3c-2.306 1.29-7.818 1.014-8.964 3.568-1.512 3.368 2.671 29.967 7.084 30.255 15.235.996 9.452-28.217 1.88-33.823m-436 16c-3.278-.013-5.639-.246-8.588-1.745-17.098-8.696 4.735 15.453 8.588 1.745m385.5 5.5c-.627.627.373 1.627 1 1s-.373-1.627-1-1M268 381c6.669-2.208 31.646-29.151 24-25-1.91-6.151 2.766-7.034 5-12-18.357.036-37.122 18.282-29 37m-38 0c1.094 9.201 12.762 13.122 18 5-2.008-1.367-5.255-3.046-6.036-5.538-1.05-3.348 4.274-5.665 2.972-8.788-3.353-8.039-19.016-7.839-22.114.753-1.656 4.591 2.338 11.005 7.178 8.573m26-7c-1.506 3.607-.711 4.907 3 6-.517-2.622-1.174-4.051-3-6m490 10c3.456-1.209 4.48-2.369 5-6-3.276 1.205-4.28 2.606-5 6m-204.997 13.578c-7.902.398-16.796 3.672-23.244 8.254-1.969 1.398-9.726 8.88-2.788 9.209 8.656.411 37.31-1.93 44.296-6.076 9.72-5.768-14.809-11.562-18.264-11.387M686 410c5.896 2.923 11.921 3.71 18 6-.345-11.134-11.18-15.934-18-6m-470 6c17.997 4.721 4.747-12.34 0 0m325 7l3 1-3-1m8 1l-1 4h6c-1.261-2.19-2.649-3.047-5-4m140.374 4.18c-1.522 1.403 1.388 2.695 2.592 1.64 1.554-1.362-1.397-2.74-2.592-1.64M552 444c4.238-.012 8.406.533 10-4-4.238.012-8.406-.533-10 4m152.18.544c-3.275.525-4.852 10.338-6.224 13.088-3.602 7.22-23.838 32.143.91 29.083 15.413-1.906 12.147-19.348 9.892-29.715-.545-2.509-.132-13.169-4.578-12.456z" fill="#fdfdfd"/><path d="M625 454v3h3v-3h-3z" fill="#020202"/><path d="M368 473c-12.007-17.646-19.547 2.792 0 0m-108 0c3.037 3.652 6.804 6.512 9.917 10.083 2.022 2.32 4.197 4.397 6.324 6.614 20.042 20.905.631-23.128-16.241-16.697m86 14c3.061 6.208 17.095 9.936 19 1-6.489-.24-12.564-2.568-19-1m-89 3l2 4c1.355-2.412.649-3.432-2-4z" fill="#fdfdfd"/><path d="M617 496l1 1c2.121-1.081 2.919-1.879 4-4-2.464.59-3.464 1.006-5 3z" fill="#020202"/><path d="M243.611 498.241c-4.511 2.807 9.895 12.662 13.578 10.876 2.317-1.123-9.166-13.622-13.578-10.876M297 506c3.674 7.438 10.801.552 0 0m-51 27c-.908-7.295-5.848-11.5-3-19-13.509.556-4.777 16.219 3 19m98-19c-3.679.017-22.828 3.537-19.319 10.717 3.831 7.839 17.916-6.982 19.319-10.717m-11 20l1 1-1-1m41.583 8.261c-2.723 1.154-.913 4.636 1.706 3.537 2.649-1.112.758-4.581-1.706-3.537M357 550c1.343 5.088 5.088 1.343 0 0m48 0v3h2v-3h-2m-61 24c-1.528-2.639-2.423-5.004-3-8 16.458 7.078 18.405-10.043 4.753-11.017-9.104-.649-13.544 17.536-1.753 19.017m282.219-18.7c-1.763 1.763.549 5.412 2.562 3.4 1.763-1.763-.55-5.412-2.562-3.4m-221.985 5.735c-21.478 6.725 5.628 25.925 16.532 22.025 16.884-6.04-4.966-25.646-16.532-22.025M369 578c-.837 6.586-6.634 16.759-5.23 22.852 2.167 9.406 35.112 9.023 45.23 12.148-2.175-21.493-19.827-28.768-40-35m-28 79c-2.946 3.395-1.195 14.876 4.361 10.278 3.047-2.521 2.056-12.995 6.722-13.834 3.877-.696 7.016 10.779 11.195 6.834 3.9-3.683-1.874-13.426.833-18.167 2.95-5.166 13.5-17.336 1.278-24.389-9.196-5.306 2.541 27.077-14.111 8.806-10.769-11.816-16.26-43.806-35.389-41.722-7.278.792-6.889 18.587-6.889 23.194 0 21.685 13.964 40.196 32 49z" fill="#fdfdfd"/><path d="M489 593c2.856-.364 4.12-.82 6-3-2.767.444-4.168.879-6 3m-31 11c-3.762 2.53-6.585 2.527-11 2 .45 4.025.112 5.939-4 7 4.286 10.421 18.7.921 15-9z" fill="#020202"/><path d="M694 630c4.135-2.083 4.848-4.51 5-9-4.609 1.636-5.718 4.276-5 9m-205 0v3h3v-3h-3m35 27c-.737 6.107-4.867 11.768-8 17 8.132 3.021 19.739-9.803 24-16 .261 7.259-10.675 12.503-9.275 19.625 1.019 5.183 8.208-4.478 11.015-1.656 2.882 2.895-1.77 8.356 1.2 10.651 6.526 5.043 15.854-.874 21.239 1.955 6.704 3.521-.587 9.268 2.184 13.438 1.466 2.206 6.968-.514 9.637.987 18.979-11.287 39.54-19.006 58.184-28.674 9.426-4.888 20.435-11.562 29.009-1.985 2.475 2.766 3.375 6.77.13 9.411-4.92 4.003-6.488-4.707-11.07-3.576-7.905 1.949-22.021 20.961-7.253 22.824-1.873 2.185-3.857 4.074-6 6l2 3c5.192-3.129 10.828-6.8 16.863-3.717 3.602 1.84 10.772 13.398 16.014 8.829 14.08-12.271-6.731-27.971-1.673-41.936 3.342-9.23 10.572 2.804 14.55-1.3 4.096-4.224-4.039-11.186 6.246-8.876.568-5.086 1.521-28.458-3.186-29.038-5.486-.677-10.972 7.576-16.953 8.237-9.113 1.005-13.914-7.701-24.725-4.375-15.378 4.73-28.722 20.995-45.238 20.7-20.464-.367-39.718-18.911-61.82-15.269-9.063 1.494-21.945 3.36-29.648 8.589-3.55 2.41-8.41 11.266-13.109 10.671-8.744-1.107 7.714-19.982-3.432-20.91-16.437-1.369-32.984 28.452-11.781 34.263C496.919 679.653 512.437 661.2 524 657m-224-13c-4.347 2.923-7.974 2.291-13 2 4.136 6.236 8.854 12.04 2.921 19.171-5.328 6.406-7.014-7.487-12.916-2.365-6.066 5.263-4.477 11.986-8.223 17.759-3.773 5.815-21.318 14.568-27.787 16.741-17.857 5.996-30.048 16.854-47.407 24.638-46.263 20.746-96.459 43.32-146.57 52.82-8.714 1.652-42.167 5.61-46.541 13.713C-1.83 792.75 0 802.187 0 807c0 5.189-1.299 11.756 2.477 15.87 8.771 9.559 22.375 5.556 33.389 8.528 3.78 1.02 8.881 5.451 12.856 4.718 11.094-2.047 23.182-8.832 34.153-2.31 8.972 5.334-18.116 8.882-21.375 12.588-3.334 3.79 6.992 6.623-.5 8.606 2.298 6.395-.742 10.02-7 12l1-9c-4.068 2.74-7.45 5.636-11 9-.333-12.566.268-19.068-16.997-18.549-2.797.084-6.772 4.21-9.324 2.888C11.834 848.312 6.466 837.19 0 833c.024 11.249 12.789 33.371 22.597 40.101 4.26 2.922 10.627 1.512 15.483 4.362 5.41 3.175 11.845 11.131 18.054 11.992 4.712.653 6.783-4.87 11.234-5.413 9.041-1.101 37.132 5.72 43.911 12.098 7.646 7.195-3.196 15.724-10.375 16.385-13.715 1.262-30.3-8.94-44.224-10.533C47.628 900.956 44.812 912.413 54 915c-3.423 6.917-8.383 18.211-.291 23.955 3.923 2.784 10.912 1.15 13.027 6.394C69.01 950.987 61.81 953.245 58 951c-2.704 1.741-4.669 3.032-6 6 14.153 3.996 26.767 12.727 40.998 15.457 8.356 1.603 15.916-3.221 24.784-.878 5.336 1.409 15.091 7.472 13.942 14.204-3.774 22.107-43.71 6.951-57.473 11.824-4.79 1.696-10.426 20.763-5.967 24.793 11.435 10.32 25.803-19.69 40.716-12.4-3.993 2.75-8.421 3.58-13 5 3.114 7.62 21.307 16.06 28.652 7.75 5.383-6.1-10.464-13.23 5.397-18.2 12.802-4.02 1.883 21.72 12.571 18.81 3.722-1.02 2.022-11.83 3.01-15.04 5.334-17.358-7.735-45.776 1.37-60.32-9.021-18.089-9.108-41.112-14.507-60.672-8.457-30.637-32.197-65.251-58.312-84.567-7.603-5.624-23.807-13.581-33.299-14.521-8.156-.807-14.14 4.054-21.882-1.24 24.915-10.643 49.966 1.535 68.682 17.871 17.819 15.553 34.622 32.122 44.556 53.49 8.464 18.207 11.593 41.443 18.599 60.444 4.048 10.981-5.209 53.5 12.163 55.195-5.821 9.025-18.17 49.75-2 50-1.1-5.86 42.323 6.1 53.176-.82 4.131-2.64-.042-14.37 3.824-19.18 7.199 28.98 41.038 20 65 20h181c15.128 0 30.877 1.27 45.941-.09 5.462-.49 10.523-5.33 16.084-5 3.183.19 2.642 2.61.975 4.09 11.179 3.79 42.479 4.52 53.583.32 5.647-2.14 7.965-7.94 14.417-9.32-2.135 3.83-5.568 6.4-8 10h42c-2.65-2.02-21.298-7.32-19.279-11.52.849-1.77 25.864.64 29.239 1.65 6.785 2.02 12.361 8.36 19.254 9.61 24.888 4.53 54.457.26 79.786.26-1.325-4.75-2.206-15.38-6.045-18.5-14.614-11.88-42.567 14.94-56.955 2.5-15.923 9.96-50.639-9.665-70.008-9.99-7.201-.121-19.423 2.66-23.992-4.01 38.258 4.92 73.681-3.66 112 .561 6.876.758 34.903 3.626 39.254-1.74 3.113-3.84-.215-12.206-.256-16.821-.154-17.673-5.456-36.519-7.786-54.078-2.206-16.62-4.657-34.28-5.186-50.93-.253-7.973 3.186-19.348 1.359-26.683-2.857-11.467-16.683-20.262-20.546-32.629-3.86-12.356-24.891-42.354-41.672-39.957-5.376.768-6.493 9.324-10.411 12.299-4.131 3.138-9.174.846-13.756 2.978 21.222 36.482 31.454 78.404 44.645 117.982 2.452 7.358 13.62 35.367 6.671 40.774-9.514 7.405-13.828-23.241-15.308-28.187-8.99-30.06-14.576-64.765-30.289-92.419-3.027-5.326-8.056-2.882-11.311-9.256-2.38-4.662-13.107-40.313-19.697-37.804-1.863.709 8.771 23.678 7.517 28.59-3.731 14.603 5.185 24.101 2.388 37.176-3.446 16.11-21.196 19.704-17.128 40.967 2.019 10.554 13.714 14.385 18.776 22.836 4.067 6.787 3.444 19.299 5.509 27.205 1.142 4.372 5.575 11.206 3.382 15.727-2.56 5.277-8.826-1.485-10.791-3.855-4.402-5.31-12.946-31.65-19.408-32.029-10.858-.637-15.981 28.288-25.195 31.524-16.307 5.728-36.25-3.273-54.084 3.011-3.464 1.221-10.849.207-13.146 3.465-3.179 4.509 7.665 4.286 9.469 4.292 13.022.048 25.956 1.001 39 1.001v3c-13.863.002-27.782 1.776-41.698.646-5.994-.486-16.444-2.913-21.302 1.354-11.573-6.89-43.19-4.995-57-5-3.694-.001-19.318 1.163-21.239-2.537-1.305-2.515 16.189-1.951 18.239-1.823 21.691 1.349 43.376 2.374 65 .36-6.048-2.975-37.105-12.529-39.101-16.583-1.73-3.511 3.791-9.427 3.774-13.417-.073-16.521-12.709-18.634 4.077-30.607 2.644-1.886 6.462-5.21 9.967-4.046 24.08 7.998 17.447 36.399 34.283 47.653.431-12.17-3.422-22.036-3.927-33.059-.17-3.697 5.154-8.001 3.341-11.255-3.206-5.751-15.56-8.499-21.336-9.769-22.728-4.996-36.828.2-43.078 23.083l8 4c-3.843 4.347-11.22 15.257-17.162 16.277-7.839 1.347-14.693-10.939-18.217-16.172C411.995 901.751 400.004 893.79 390 893c.366 21.639-19.607-11.689-26.093-19.47-19.463-23.348-27.129-52.665-42.516-79.073C316.12 785.411 298.872 766.389 303 755c-1.745-3.153-12.457-22.639-11.587-22.816 3.747-.763 7.734 9.234 8.69 11.814 3.596 9.71 15.163 28.059 22.734 35.239 22.68 21.508 30.145 50.651 49.134 73.472C388.03 872.009 421.645 882.996 446 884c-11.084-24.635-32.184-36.543-52.486-52.102-6.162-4.721-9.073-12.733-15.314-16.996-4.889-3.341-11.361.903-16.386-3.561-5.471-4.859-3.12-12.758-7.881-17.697-3.827-3.971-10.284-2.324-13.656-6.366-10.868-13.027-2.943-30.874-11.454-44.496-1.887-3.02-13.88-7.292-12.841-10.277 1.305-3.747 8.664-.141 11.018.495-.75-5.357-6.192-25.784-9.225-30.294-4.451-6.619-13.998-13.262-16.167-20.93-3.348-11.838 6.665-26.478-1.608-37.776z" fill="#fdfdfd"/><path d="M484 660c2.121-1.081 2.919-1.879 4-4-2.492.97-3.146 1.475-4 4m75 4c3.598-1.647 5.353-3.402 7-7-4.538.778-6.222 2.462-7 7z" fill="#020202"/><path d="M435 660c.654 3.054 2.007 2.936 5 3-1.526-2.141-2.402-2.503-5-3m-80.458 8.007c-3.845 1.669 1.543 8.097 4.516 6.454 3.809-2.104-.862-8.04-4.516-6.454z" fill="#fdfdfd"/><path d="M552 667v3h3v-3h-3z" fill="#020202"/><path d="M507.322 684.216c-3.315 3.463 4.299 7.029 7.245 3.747 3.835-4.272-4.694-6.412-7.245-3.747M429 693c3.555-.52 4.48-1.445 5-5-2.901 1.054-3.946 2.099-5 5m46 0c3.013-.173 5.278-.696 8-2-3.592-3.278-6.575-2.746-8 2m49-3v3h3v-3h-3m161 3h4v-2c-2.352.01-2.614.105-4 2z" fill="#fdfdfd"/><path d="M281 693c.016 10.818 2.506 20.681 8 30 2.629-7.038-.296-27.039-8-30z" fill="#020202"/><path d="M352 721c-.239-2.033-9.114-24.997-8.001-24.997-1.759 0-13.533 19.345-11.471 21.971 3.599 4.581 14.139 1.553 19.472 3.026m189.667-24.667c-.445.445.611.389.666.334.445-.445-.611-.389-.666-.334M615 701c2.791-.625 3.374-1.209 4-4-2.492.97-3.146 1.475-4 4m-168-3c.578 4.36.982 8.598 1 13 9.087-2.641 7.715-11.28-1-13m-13 23c-4.39-21.748-11.662-1.554 0 0z" fill="#fdfdfd"/><path d="M323 821c-.532-16.274-17.845-51.268-28.692-63.709-6.93-7.948-15.161-9.969-21.822-19.951-3.358-5.034-17.012-30.174-24.659-24.81-5.578 3.914-1.279 13.978 3.713 16.412 15.249 7.435 10.061 13.996 20.398 27.351 9.768 12.621 16.909 28.408 27.559 40.841 2.782 3.248 7.603 2.186 10.744 5.403 5.521 5.653 5.067 15.387 12.759 18.463z" fill="#020202"/><path d="M562 747c-4.699-5.442-3.91-17.668-9.864-21.354-6.733-4.168-12.792 25.52-16.136 12.354-16.884 5.937 13.841 32.822 8 16 4.951.377 13.079 3.708 17.628 2.267 6.597-2.09 33.494-28.24 29.427-36.659-2.627-5.439-9.224 4.736-12.273 4.606-4.848-.206-7.544-7.057-12.579-6.271-3.48.544-4.196 24.631-4.203 29.057m-78-14c3.916-1.732 7.069-3.87 10-7-6.749-3.363-15.09-1.718-10 7z" fill="#fdfdfd"/><path d="M224 730c7.458 5.626 12.47 7.962 22 8-1.975-9.949-15.24-20.977-22-8z" fill="#020202"/><path d="M448 728l5-1c-2.342-2.538-4.069-2.442-5 1z" fill="#fdfdfd"/><path d="M174 740c15.188.14 32.029 3.212 47 0v-2c-12.704-4.314-38.729-16.608-47 2z" fill="#020202"/><path d="M491 738c4.344-.302 6.696-1.228 9-5-3.973.734-6.541 1.731-9 5m16 5c5.845-.399 9.767-3.116 11-9-5.512 1.015-9.217 3.603-11 9m-122 4c4.569-1.511 25.94.154 26.464-.701.206-.336-20.86-17.939-26.464.701m98-4c3.394-.72 4.795-1.724 6-5-3.158.891-4.812 1.901-6 5z" fill="#fdfdfd"/><path d="M246 740c2.265 3.564 4.13 6.142 8 8-1.839-4.103-3.58-6.717-8-8z" fill="#020202"/><path d="M425.336 741.18c-1.348 1.348 1.176 2.792 2.328 1.64 1.348-1.348-1.176-2.792-2.328-1.64m173.118.044c-4.741 1.644.498 10.237 3.939 8.691 3.715-1.669.448-10.212-3.939-8.691m73.763-.507c-25.295 8.387 26.845 34.672 35.206 31.138 29.656-12.532-21.302-35.748-35.206-31.138M806 788c15.121-7.75 4.305-22.181-5.699-28.759-4.431-2.914-8.749.808-12.74-1.28-4.188-2.191-5.316-7.65-9.015-10.305-8.048-5.778-31.886-9.893-41.328-6.713-12.539 4.223-16.877 22.902-8.86 33.22 8.034 10.339 15.422 13.374 24.76 22.221 14.06 13.319 21.167 28.013 42.163 32.932 5.248 1.23 36.668-9.467 31.234-17.48-2.762-4.073-12.719 4.151-18.301-1.788-5.49-5.841 1.932-14.481-2.214-22.048m-167.455-43.864c-5.756 2.742 6.606 15.47 13.025 12.451 10.939-5.146-4.587-16.47-13.025-12.451z" fill="#fdfdfd"/><path d="M161 745c1.526 2.141 2.402 2.503 5 3-1.228-2.612-2.119-3.172-5-3z" fill="#020202"/><path d="M587.442 745.674c-3.392.263-.957 5.24 2.097 4.637 3.308-.653.228-4.817-2.097-4.637M626 746c1.945 3.474 4.317 6.387 8 8-2.046-3.68-3.944-6.542-8-8z" fill="#fdfdfd"/><path d="M260 760l2 3c1.118-2.14.251-2.527-2-3m-154 7c5.337 6.238 14.678 5.442 21.863 7.919C137.922 778.386 145.897 786.875 156 790c-8.539-13.801-33.861-27.082-50-23z" fill="#020202"/><path d="M292 767c.216 3.198.57 4.872 3 7-.216-3.198-.57-4.872-3-7z" fill="#fdfdfd"/><path d="M798 771l-3 5c4.835 1.04 8.745-2.343 3-5z" fill="#020202"/><path d="M532 774l1 1-1-1z" fill="#fdfdfd"/><path d="M762 777c6.848 10.228 7.781 13.862 21 14-2.529-6.037-14.501-16.927-21-14z" fill="#020202"/><path d="M590 777c1.787 2.463 2.978 3.499 6 4-.835-3.573-2.5-3.817-6-4z" fill="#fdfdfd"/><path d="M19 787c6.725 6.159 14.283.515 21.882 1.413 8.669 1.025 18.683 7.341 26.661 10.782 18.967 8.18 38.913 36.89 50.512 53.511 10.679 15.301 17.356 41.612 20.591 60.43 1.65 9.595 1.701 26.297 8.354 33.864-4.583 7.698-.829 16.883-.118 25.04 1.199 13.763-.943 26.641-2.425 40-.414 3.74-.197 13.68 6.071 11.43 3.388-1.22 2.977-8.89 3.714-11.91 3.314-13.577 3.063-24.622 8.758-37.56-17.247-2.91-7.863-43.065-11.466-54.342-15.096-47.252-27.038-86.557-67.756-118.705C66.764 787.519 40.518 775.64 19 787m767 7c3.015.537 5.939.891 9 1-4.997 12.785 2.671 12.176 5.882.438 3.669-13.411-10.336-7.397-14.882-1.438m-628-3c.482 2.364.636 2.518 3 3-.973-1.27-1.73-2.027-3-3z" fill="#020202"/><path d="M832 794l3 1-3-1z" fill="#fdfdfd"/><path d="M3 805v2c3.423.579 4.865.397 6-3l-6 1z" fill="#020202"/><path d="M871 825c-2.06-3.766-25.098-23.956-28.049-18.292-.31.594 24.453 17.182 28.049 18.292m-531.333-17.667c-.445.445.611.389.666.334.445-.445-.611-.389-.666-.334z" fill="#fdfdfd"/><path d="M177 818c.382 2.595.847 5.081 1.724 7.563 7.947 22.491 11.951-2.37-1.724-7.563M0 821c.001 8.225 9.04 30.002 18.276 31.095 7.339.868 18.994-7.176 26.277 1.804 2.672 3.294-1.089 9.096-.553 13.101 3.511-2.427 7.391-5.631 10-9 .497 3.091.263 5.885 0 9 6.65-1.348 10.02-5.583 7-12 7.748-1.393-3-6.074 3.077-9.727 3.402-2.044 21.895-5.051 21.895-8.312 0-6.154-14.11-6.287-17.882-5.832C43.127 834.137 22.938 833.027 0 821m631 4c-.552 7.25-1.859 32.237 6 35 0-8.009 2.564-31.706-6-35z" fill="#020202"/><path d="M825 827c20.002 20.036 47.668 23.086 71 36 7.238-1.575 16.145 7.42 24 8-9.018-20.074-52.092-35.697-71.978-40.53-7.302-1.775-15.7-6.874-23.022-3.47m49 0c1.69 4.453 4.664 6.317 9 8-2.455-3.528-5.199-5.991-9-8m-30 197c-1.8-10.97-4.652-23.44-8.122-34-.473-1.442-4.832-10.106-1.609-10.569 17.134-2.465 22.477 31.399 28.387 40.619 4.14 6.45 23.407 5.29 30.052 3.67 5.504-1.35-4.485-16.38-5.748-20.5-5.855-19.098-18.15-42.08-28.071-59.583-1.968-3.472-10.376-23.297-15.481-21.534-7.98 2.756 4.246 28.697-14.327 21.492-7.628-2.959-13.932-14.081-18.605-20.434-16.234-22.07-21.265-46.565-35.153-70-2.207-3.724-26.286-19.691-29.038-16.853-4.363 4.5 13.484 17.713 15.897 20.424 5.572 6.26 2.854 18.943 5.337 27.132 2.761 9.104 12.025 17.519 18.315 24.28 3.186 3.424 4.232 6.132 1.166 9.856 2.539 5.965 4.518 15.336 10 19-10.271 7.443-17.694-5.73-24.471-12.824-4.935-5.166-12.963-8.564-16.255-15.048-3.034-5.975 1.148-13.555.098-20.088-1.911-11.886-7.596-19.894-12.802-30.322-2.042-4.092-7.904-33.336-15.536-27.407-9.413 7.313 4.79 35.683 6.124 44.707 5.659 38.259 8.24 82.289 25.242 117.68 4.17 8.682 2.829 21.522 11.6 27.282 3.717 2.44 28.37 6.72 28.435-.11.092-9.86-11.296-26.378-12.971-37.878-.433-2.978-2.413-20.455 3.087-19.833 4.621.523 6.387 9.268 8.865 12.186 3.092 3.643 7.083-3.411 9.414 1.046 6.28 12.012-.744 36.689 10.293 46.349 4.602 4.03 19.945 1.26 25.877 1.26z" fill="#fdfdfd"/><path d="M0 843v65c3.682-.488 7.282-.929 11-1-1.54 2.161-3.72 5.432-1.7 8.06 3.32 4.317 9.818-1.136 13.861 4.293 6.606 8.872.416 18.255-9.161 10.647-3.886 4.73-5.848 8.829-6 15 3.402-.626 5.757-1.311 8-4 7.756 10.473 19.831.674 14-10 15.38-7.477 8.353 11.904 19 24-3.722 1.998-7.063 4.397-11 6 1.97 3.599 4.582 5.809 3 10 11.102 9.923-11.856 6.307-16 7 4.646 17.855 19.108 14.122 29.806 26.93 4.14 4.95-9.775 8.72-10.63 11.66-2.85 9.8 19.346 7.41 23.824 7.41-11.57-44.491 41.595-14.03 57.956-29.026 8.944-8.199 6.291-17.747-4.677-22.453-10.104-4.335-18.778 1.729-28.281-.297C78.386 969.108 67.05 959.919 52 957l5-6c4.487 2.651 13.41.304 9.848-6.433-2.353-4.448-8.59-3.11-12.34-5.612-8.816-5.881-3.426-16.372-.508-23.955-7.858-3.331-6.405-13.285 2.699-12.591 14.082 1.074 31.367 12.311 45.101 10.208 6.951-1.064 16.222-8.024 10.699-15.79-5.143-7.23-36.851-13.78-45.402-12.903-4.528.465-7.046 6.459-11.812 4.947-5.373-1.704-30.936-14.352-34.063-17.734C13.328 862.598 10.182 848.474 0 843z" fill="#020202"/><path d="M918 994c-5.263-6.144-8.699-22.778-17-24 .981 3.801 2.112 6.454 0 10 6.629 12.136 11.037 33.27 22.284 41.82 13.834 10.51 23.397-10.56 19.98-21.72-1.204-3.928-7.928-6.445-10.164-10.617-5.832-10.88-10.43-24.567-13.46-35.828-2.107-7.832 8.997-14.617 4.693-24.196-11.362-25.289-40.857-36.407-58.042-54.529-9.561-10.082-37.718-26.256-51.353-27.226-4.189-.298-21.531 4.247-21.855 9.26-.709 10.944 24.91 20.932 29.763 32.383 3.73 8.799-24.271 6.373-15.884 15.795 1.646 1.849 30.569 9.616 32.577 9.044 4.188-1.193 2.641-12.451 6.148-11.564 8.762 2.218 15.295 21.668 21.472 27.72 7.465 7.314 14.002 16.873 23.355 21.943 8.265 4.48 16.522-1.556 23.109 10.292 3.898 7.012 4.087 23.234 4.377 31.423z" fill="#fdfdfd"/><path d="M222.491 862.028c-6.052 2.072-2.512 9.029.569 11.987 4.842 4.649 21.027 11.628 27.591 8.861 16.788-7.079-24.618-22.061-28.16-20.848M289 865c-9.908 22.04 30.193 5.139 16.539.56-5.465-1.832-10.495 2.452-16.539-.56z" fill="#020202"/><path d="M924 875c1.536 1.994 2.536 2.41 5 3-1.592-2.048-2.449-2.494-5-3z" fill="#fdfdfd"/><path d="M645 885c10.302-.123 3.568-6.806 0 0z" fill="#020202"/><path d="M933.986 884.914c-2.623.295-20.98 6.922-12.894 7.591 5.714.472 23.157-8.743 12.894-7.591z" fill="#fdfdfd"/><path d="M852 885c1.383 2.406 2.584 3.636 5 5-.52-3.555-1.445-4.48-5-5z" fill="#020202"/><path d="M19 898c-14.092-8.464-6.79 14.115 0 0M0 926v29c2.36-.268 23.663-.517 19.542 6.062-1.719 2.745-11.677-1.104-10.538 5.928.588 3.635 26.883.767 7.996 10.01 3.021 12.266 7.262 21.155 5 34-3.878.04-8.44 7.75-3.713 8.58 2.222.39 6.146-3.97 8.713-4.58-.742 2.28-2.273 3.74 0 5-1.297 1.59-1.535 2.02-2 4h22c-3.808-11.54 11.287-10.78 8.797-18.61-2.102-6.602-22.13-11.374-26.978-15.565-2.592-2.241-2.664-8.59-3.819-11.825 3.251-.363 30.013 1.777 16-7 2.309-4.23-.42-6.534-3-10 4.228-1.253 7.45-3.439 11-6-8.103-11.976-4.674-33.242-19-24 3.92 9.51-6.574 21.114-13 10-2.908 1.87-5.659 3.103-9 4 .297-6.031 2.898-9.991 6-15 6.33 6.756 16.479 1.758 11.688-7.28-4.922-9.283-10.899-2.507-15.786-7.683C7.64 912.641 9.707 909.275 11 907c-19.602.194-2.472 18.573-11 19m948-13l3 1-3-1z" fill="#fdfdfd"/><path d="M210 916v8c4.59-1.562 3.62-5.717 0-8M0 920c.736 10.07 8.917 2.589 0 0z" fill="#020202"/><path d="M552 924c2.827 11.115-.344 15.374 13 19-.92-7.429-7.1-14.664-13-19m281.667 3.333c-.445.445.611.389.666.334.445-.445-.611-.389-.666-.334M953 931c.187 4.229.798 7.384 5 9-.138-4.439-.564-7.356-5-9z" fill="#fdfdfd"/><path d="M87 944c-17.53 16.07 16.169 18.264 27 13-9.228-9.72-20.888 4.001-27-13m292 6c2.745 6.933 15.988 7.158 22 5-3.256-6.21-15.731-4.996-22-5m408 1c-.389 3.261-.311 5.027 3 6l-1-6h-2m-760 69c-.581-1.82-.313-3.08 0-5-2.49.35-6.736 4.26-8.652 3.81-4.916-1.16 1.336-7.32 3.652-7.81 3.267-12.31-.93-22.468-5-34 20.473-5.387-7.903-9.992-7.828-10.82.588-6.489 11.942-1.596 11.367-6.119-.733-5.757-15.211-7.585-18.936-4.742C-1.71 957.848 0 967.29 0 971c0 12.149-5.452 41.03.603 51.4 3.112 5.32 23.332 1.82 26.397-2.4m8-56c-4.13-11.749-11.496-1.512 0 0m798-7c1.139 3.517 2.564 5.544 6 7-.326-4.525-1.389-6.358-6-7m-270 3c5.711 5.23 30.41 6.7 35 0-11.003 0-24.769-4.868-35 0m134 0c-6.361.592-12.589 1.312-19 .864-4.025-.282-7.952-.835-12-.862-44.393-.295 27.102 13.929 31-.002m92.148 2.743c-5.094.225-3.243 16.006-2.927 19.254 1.483 15.268 6.904 44.683 26.629 41.853 8.034-1.15.216-16.66-1.051-21.17-1.821-6.488 1.346-23.857-4.864-28.216-2.649-1.859-5.179 3.145-7.978.675-3.042-2.686-4.505-12.631-9.809-12.396z" fill="#020202"/><path d="M944 961c.464 6.908 7.564 16.252 14 19-.493-4.477-9.826-17.78-14-19z" fill="#fdfdfd"/><path d="M213.139 971.437c-2.368.517-1.994 5.237.636 4.779 2.499-.435 1.827-5.317-.636-4.779M259 974c1.88 2.18 3.144 2.636 6 3-1.289-3.26-2.614-3.613-6-3m606 50c-4.651-11.9-10.259-35.861-22.92-40.593-1.756-.656-6.792-5.563-8.401-4.666-3.413 1.902 3.373 15.461 4.103 18.395C843.008 1018.14 841.384 1024 865 1024m-199-40v3h3v-3h-3z" fill="#020202"/><path d="M968.105 985.241c-2.233 2.151 11.895 28.059 17.84 23.239 6.836-5.55-9.047-31.709-17.84-23.239M44 990c6.245 5.714 8.27-3.853 0 0z" fill="#fdfdfd"/><path d="M363 990c4.761 10.54 36.932 4.245 46.96 5.118C450.966 998.69 491.823 1000 533 1000c12.281 0 33.852 5.67 43-4-14.687-9.189-44.137-.931-61-1.829-50.971-2.712-100.814-2.357-152-4.171m-331.497 8.916c-6.616 2.664-.832 7.624 4.11 5.144 5.218-2.62.008-6.8-4.11-5.144M139 1024c-1.534-5.65.458-14.73-3.627-19.15-3.258-3.54-12.916 1.81-14.301 5.5-3.92 10.46 11.726 13.65 17.928 13.65m77-20c-2.882 13.43-.81 20 13 20-2.769-7.23-8.447-11.86-11-20h-2m-136 20h19c-.541-3.33-1.4-6.03-3-9 4.444-1.06 8.881-1.99 13-4-8.473-9.04-25.23 3.98-29 13m575 0c-3.975-13.6-71.223-19.46-31.134-2.86 4.365 1.81 7.297 2.85 12.134 2.86h19m-73 0c5.974-.69 10.859-4.33 13-10-6.28.79-10.211 4.45-13 10m-420 0c2.917-6.82-4.466-6.19 0 0m352 0c23.018 0 9.211-11.01 0 0z" fill="#020202"/><path d="M55.667 1023.33c-.445.45.61.39.666.34.445-.45-.61-.39-.666-.34z" fill="#fdfdfd"/></svg>