<svg xmlns="http://www.w3.org/2000/svg" width="1024" height="1024"><path d="M0 0v787c7.163-.211 13.257-4.166 20.09-5.776 9.24-2.177 18.61-4.677 27.925-6.455 3.906-.746 8.074-.219 11.895-1.184 4.274-1.079 7.942-4.161 12.18-5.506 10.303-3.272 20.527-7.576 30.949-10.378 8.537-2.295 17.841-3.007 25.956-6.745 3.912-1.802 6.081-5.65 9.738-7.902 4.357-2.684 9.56-3.618 14.192-5.724 3.587-1.63 6.645-4.166 10.36-5.619 6.323-2.473 13.158-3.355 19.625-5.25 7.469-2.189 15.086-5.984 22.014-9.54 8.042-4.129 13.878-11.962 22.076-16.196 5.495-2.839 11.516-1.593 16.826-4.294 2.697-1.371 4.686-3.73 7.333-5.172 5.4-2.943 13.837-4.624 17.523-9.967 1.48-2.145 1.218-4.835 1.871-7.253 1.484-5.496 5.869-11.586 11.447-13.039 2.107 8.445 9.107 7.063 10.66-1.039 1.024-5.347-1.213-10.041-5.66-12.961 5.349-1.159 9.157.368 14-3 1.5 6.385 4.378 15.222 0 21v2c3.501 4.828-1.757 11.537 1.144 17.384 3.654 7.362 12.022 12.692 16.288 19.916 3.301 5.591.241 12.466 2.043 18.396 1.33 4.379 5.746 5.506 6.525 10.304-4.655-1.707-7.982-3.091-13-2l1 5c2.701.366 5.344.806 7.826 2.011 14.47 7.026 7.224 24.008 10.491 35.805.709 2.558 3.071 3.969 4.134 6.329 1.065 2.364.353 5.179 2.007 7.322 3.326 4.307 10.478 2.394 14.564 6.862 4.654 5.091 1.856 13.079 7.666 17.751 4.993 4.016 11.258-.203 15.853 2.716 6.622 4.207 9.436 12.983 15.923 17.806 3.185 2.368 7.261 2.989 10.402 5.444 2.657 2.077 4.12 5.035 7.019 6.91 3.328 2.152 7.163 3.106 10.231 5.674 6.225 5.212 10.79 12.63 14.728 19.575.916 1.615 1.048 3.608 2.164 5.111 2.436 3.278 5.813 4.935 7.992 8.684-6.396-.297-10.231-4.57-16.17-5.737-4.18-.822-8.594-.062-12.829-.692-9.549-1.421-21.025-5.436-28.961-10.999-3.07-2.152-4.076-5.449-6.728-7.86-2.736-2.486-6.262-2.949-8.756-5.952-3.362-4.047-3.258-7.879-5.409-12.246-1.119-2.274-3.245-3.964-4.568-6.13-4.02-6.579-7.813-13.189-12.04-19.694-2.418-3.721-3.323-8.295-5.797-11.945-4.606-6.793-10.073-13.221-15.835-19.076-2.54-2.58-5.724-4.158-7.902-7.109-4.18-5.663-6.567-12.278-10.484-18.136-2.74-4.097-6.734-7.341-9.043-11.723-3.151-5.983-4.402-14.01-11.478-16.701-1.589 6.537 3.757 8.141 6.775 13.134 2.113 3.495 3.056 8.322 6.225 10.866-2.322 3.551-.057 6.618 1.376 10.286 3.302 8.449 6.909 15.031 11.78 22.628 8.181 12.761 15.941 25.101 21.541 39.259 3.425 8.66 5.464 18.133 9.474 26.541 2.814 5.903 8.263 7.916 11.99 12.697 2.008 2.576 3.132 6.457 3.839 9.589 11.309 4.086 12.552 11.766 18.094 21.411 1.282 2.23 4.331 8.638 7.769 7.708 3.224-.873 1.187-8.711 1.137-11.119 8.74 1.885 18.646 7.133 24.893 13.988 7.792 8.55 10.586 19.861 24.107 20.012 1.37-5.091 4.348-5.473 7.826-8.814 2.281-2.191 3.907-4.973 6.174-7.186-2.31-2.545-4.767-3.872-8-5 1.721-3.459.794-5.39 0-9 3.046-.762 5.338-2.365 8-4v-2c-1.087-1.789-1.459-3.179.59-4.687 2.089-1.537 4.977-1.222 7.32-2.151 4.464-1.768 9.937-5.864 15.01-5.432 2.98.254 5.737 2.526 8.505 3.524 6.636 2.392 11.924 3.067 18.19 6.693 1.982 1.147 5.985 1.865 6.773 4.313 1.03 3.199-4.199 7.549-3.802 11.651.385 3.994 4.097 7.049 4.936 11.104 1.438 6.957-.464 14.009-.522 20.985-4.493-3.706-4.609-9.058-7.429-13.916-1.506-2.595-4.254-5.149-4.893-8.135-.755-3.532.623-6.208-.678-9.949-6.173-.963-10.972-8.357-15.789-12.296-1.869-1.529-3.742-3.955-6.295-4.268-2.371-.291-4.767 1.477-6.669 2.66-4.809 2.99-8.958 6.733-14.247 8.904.283 4.445 1.232 8.388 5 11-1.189 5.715 3.555 9.427 2.406 14.961-.681 3.278-5.852 8.244-4.415 11.556 1.483 3.419 7.958 3.081 10.97 3.572 3.696.604 8.462 1.796 11.753 3.585 6.03 3.277 10.021 7.843 17.286 8.326-6.425 2.175-15.75.023-21 4-4.834-3.386-11.353-1.632-17-2.17-15.509-1.476-31.446-1.82-47-1.83v4c10.004.001 21.032-.037 30.961 1.129 6.036.709 11.798 2.896 18.039 2.742 6.403-.158 12.576.118 19 .129 4.004.007 7.727-.48 11 2 7.285-4.051 15.445-1.197 23.116-.714 2.869.18 5.913-1.231 8.885-1.281 5.548-.094 10.688 1.887 15.999 1.887 5.271 0 10.507-1.892 16-1.892v-3c-6.325 0-12.742-1.016-19-.871-10.156.234-20.926.741-31-1.129 2.32-6.31 7.38-4.514 12.911-5.684 4.015-.85 7.299-3.797 11.259-4.846 3.429-.909 7.314-.47 10.83-.47 5.256 0 9.955 1.754 15.025 1.927 3.122.107 5.873-1.716 8.925-1.539 3.456.2 6.246 2.213 9.876 1.308 5.241-1.306 6.257-7.419 8.383-11.537 3.862-7.48 12.405-12.576 13.791-21.159 5.837.818 6.685 4.584 9 9.424 3.493 7.301 7.095 14.98 11.553 21.768 1.928 2.936 6.96 9.527 11.144 7.957 3.562-1.337 2.149-6.961 1.298-9.57-2.51-7.702-5.196-15.59-6.552-23.583-.683-4.026.32-8.648-1.591-12.377-4.571-8.921-16.671-12.252-19.253-22.774-.591-2.407.835-4.383.686-6.729-.407-6.433-1.116-11.718 2.925-17.602 5.174-7.535 13.889-10.526 13.785-20.511-.08-7.6-6.908-13.605-6.723-21.003.176-6.995 6.224-12.057 4.269-19.714-1.971-7.718-8.959-14.672-9.541-22.286 5.026 1.463 6.203 5.253 8.576 9.54 4.456 8.052 7.119 16.698 10.384 25.29 1.528 4.023 3.748 6.728 4.04 11.17 1.895-.244 4.898-1.555 6.71-.713 2.385 1.108 3.502 4.423 4.319 6.698 1.936 5.394 3.162 11.016 5.341 16.297 5.494 13.316 12.352 26.992 16.186 40.888 1.051 3.811.951 7.81 1.699 11.66 1.469 7.553 4.224 14.943 6.329 22.34 1.911 6.714 2.853 13.781 5.116 20.402.953 2.789 2.155 6.076 5.344 6.856 4.616 1.13 7.439-3.436 7.268-7.439-.241-5.64-3.347-10.809-4.895-16.159-1.175-4.06-.896-8.396-2.131-12.406-2.568-8.334-4.595-17.045-7.264-25.254-2.682-8.252-7.122-16.005-9.602-24.34-2.512-8.44-4.216-17.08-7.169-25.405-2.185-6.158-6.025-11.72-8.617-17.711-3.045-7.038-6.272-13.899-9.424-20.884-1.553-3.44-2.152-7.515-5.21-9.83 4.687-3.445 9.08-.119 13.826-3.329 3.952-2.674 5.549-13.143 11.108-12.848 5.286.281 11.841 6.821 15.731 9.972 6.583 5.331 15.971 9.137 20.666 16.491 4.508 7.061 3.877 15.635 8.244 22.91 2.401 4 4.655 8.662 7.729 12.174 3.126 3.572 7.404 6.138 8.924 10.912 1.072 3.367-.935 6.409-1.174 9.757a143.66 143.66 0 0 0 0 19.922c.201 2.815 1.491 5.297 1.817 8.078.578 4.921-.335 9.953.258 14.872 1.768 14.673 3.638 29.347 5.041 44.089.738 7.755 3.062 14.551 4.585 22.089 1.274 6.306.846 12.526 1.299 18.872.369 5.17 1.16 7.854-.054 13.039-8.705-.001-17.331-.671-26-.871-3.367-.078-6.621.925-10 .687-9.229-.653-18.037-2.596-27.089-3.687-5.169-.623-9.921.96-14.911.96-2.039 0-3.933-.985-6-.981-7.253.016-14.008 4.947-21.039 5.762-7.359.853-15.582-1.982-22.961-2.7-7.675-.747-15.32.415-23-.17 2.253 6.79 16.045 3.988 22 4 17.322.035 34.15 6.29 50.961 9.96 7.463 1.63 14.118 8.33 20.039.04 3.592 3.06 9.729 7 14.701 4.69 2.661-1.23 3.285-4.38 6.357-5.25 4.134-1.18 8.699.75 12.942.39 6.702-.58 13.123-4.29 19.96-3.66 9.723.9 4.434 14.28 10.625 18.81 2.584 1.88 7.406 1.02 10.415 1.02h27c-3.432-2.8-7.293-4.5-9.695-8.44-3.67-6.02-3.436-14.53-6.065-21.096-7.525-18.791-13.402-38.449-17.201-58.503-1.12-5.912-.24-11.956-1.298-17.791-.7-3.856-2.801-7.398-3.482-11.259-.978-5.552.421-11.322-.737-16.872C733.378 870.186 724.407 850.521 727 830c5.372.604 8.588 3.933 10.312 9.089 1.768 5.284 1.836 10.971 4.166 16.182 5.501 12.302 13.592 21.774 15.054 35.73.746 7.13-3.891 13.208.081 19.829 2.46 4.101 7.154 6.165 10.725 9.119C773.84 925.328 783.187 933.483 787 941c3.87-.18 6.65-1.08 10-3-4.495-6.269-6.101-13.353-10-20 6.81-4.418-1.333-10.773-4.985-14.373-7.124-7.022-12.921-15.872-15.47-25.341-1.333-4.952-3.037-8.827.455-13.286v-2c-1.802-2.219-2.709-4.976-4.719-7.076C756.292 849.665 746.355 844.26 745 835c5.168.788 8.063 4.734 12.439 7.275 5.49 3.189 11.059 3.35 15.623 8.404 2.633 2.916 3.877 6.75 5.663 10.191 4.808 9.265 8.071 18.019 11.248 27.96 4.119 12.889 9.499 22.978 18.701 32.753 2.705 2.873 3.992 6.731 6.536 9.702 1.694 1.978 4.24 2.903 5.824 4.974 3.034 3.968 4.429 7.361 9.97 8.346 3.455.614 6.71-.736 9.996-1.605 0-5.255-.485-10.772.109-15.995.186-1.637.672-4.76 2.896-4.802 2.09-.039 3.664 3.395 4.737 4.797 4.052 5.298 6.92 11.644 10.205 17.438 3.248 5.729 4.393 12.443 7.312 18.273 1.553 3.102 4.062 5.644 5.627 8.752 2.593 5.151 3.895 10.763 6.219 15.961 1.576 3.524 4.373 6.2 6.059 9.626 2.234 4.54 2.664 9.06 4.138 13.74 1.641 5.21 6.743 7.14 7.698 13.21h29c-1.483-1.93-3.508-3.79-4.402-6.09-1.231-3.17-.953-5.95-2.997-8.91-2.863-4.13-8.312-6.63-10.422-11.174-2.659-5.724-.435-12.116-6.179-16.826 2.716-3.88 1.49-6.827 0-11h5c.605 6.672 4.075 11.785 7.451 17.321 1.623 2.663 1.948 4.827 4.549 6.679-.067-8.116-2.238-15.225-3.482-23.015-.453-2.832 1.188-6.791-.557-9.261-1.21-1.714-3.692-2.233-5.243-3.598-2.424-2.135-3.295-6.21-6.868-6.793-4.387-.716-6.969 3.401-11.386.523-7.034-4.583-11.596-10.512-17.199-16.57-3.268-3.535-7.309-6.225-10.171-10.174-1.896-2.617-2.546-5.822-4.368-8.446-3.818-5.498-9.181-9.217-11.726-15.666h-4c0 1.996.061 4.006-.018 6.001-.038.943-.006 1.986-.261 2.905-2.698 9.757-12.298-1.01-17.81-1.774-5.174-.717-15.8 1.545-18.623-4.352-1.177-2.459.314-4.706 2.652-5.592 3.44-1.304 16.796-1.992 15.17-8.048-.606-2.257-2.981-3.505-4.098-5.464-1.472-2.58-1.05-5.352-3.24-7.633-4.214-4.388-9.417-5.201-14.333-8.181-5.335-3.234-8.272-8.187-10.439-13.862 6.732-2.129 14.927-6.974 22-7.143 4.405-.105 6.403 3.999 10.174 5.441 9.157 3.501 22.767 4.766 27.826 14.702 8.723 1.117 17.811 7.927 19 17 2.205-.094 3.894-.356 6-1 2.864 4.957 10.88 7.9 15.593 11.134 9.552 6.557 19.546 17.946 26.06 27.454 1.883 2.748 5.252 5.195 6.204 8.417.957 3.241.557 8.657-1.056 11.583-1.607 2.914-4.88 6.06-5.208 9.537-.689 7.302 11.779 9.706 4.407 17.875 1.701 3.942 5 6.626 6.857 10.439 2.318 4.762 2.182 9.381 5.813 13.714 2.396 2.859 8.843 3.543 6.33 7.847v2c3.115 4.32-1.141 5.89-2.238 10.1-.82 3.15.103 6.7.238 9.9h84V0H0z" fill="#020202"/><path d="M331 148c3.836-.76 6.693-1.048 8-5 2.377.572 4.558.891 7 1 1.225 6.08 6.01 11.326 12 13 1.38-2.294 2.879-3.705 5.704-2.239 2.76 1.431 4.495 4.208 7.372 5.565 5.592 2.64 10.945 2.72 16.754 4.13 4.523 1.098 8.681 3.447 13.17 4.544 2.952-4.518 6.424-9.883 8-15 7.907 0 15.194 1.994 23 2-2.651 5.579-9.721 9.401-11.424 15.093-1.671 5.59 1.772 9.773 2.007 14.957.256 5.662-7.872 10.251-12.583 10.95 2.077 3.485 5.584 5.708 8 9h2c.629-.846 1.194-1.892 2.035-2.586 6.047-4.998 8.764 3.546 14.951 3.383 4.727-.124 5.198-4.093 7.867-7.034 4.308-4.747 9.715-5.224 8.147-12.763 11.527-1.457 24.583-.184 30 12-7.103-.457-11.865-5.668-19-6 5.194 5.773 12.385 8.71 14 17 4.715.043 7.666.507 11 4h2c1.271-2.245 2.967-4.531 3.511-7.089.568-2.676-.085-5.38 1.961-7.588 2.185-2.359 6.255-2.309 7.541.982.777 1.987-.52 3.811-.626 5.775-.124 2.3 1.118 4.699 1.613 6.92 3.292.297 5.499.822 8 3 1.195-.598.977-.466 2-2 5.721 4.595 16.756-4.85 18-11h5c.991 3.431 3.326 5.936 4.829 9.156 3.397 7.273 5.253 15.884 15.156 14.652 5.824-.725 8.854-5.61 15.015-5.808-.945-3.016-.622-4.949 0-8 5.964 2.069 8.183 7.408 12.889 11.185 3.193 2.562 7.209 3.058 11.111 3.815 1.976-8.129-5.631-7.693-10.54-11.725-3.575-2.936-4.622-6.777-5.875-10.989-1.013-3.406-1.799-5.313.415-8.286-4.681-5.269-10.965-2.186-16-6h-2c-2.087 1.762-4.996 2.681-6.772 4.803-3.269 3.907-4.173 13.214-4.228 18.197h-4c-.374-5.321-4.646-8.631-4.887-14-.155-3.454 3.302-7.422 1.972-10.561-2.01-4.741-10.894-4.558-11.762-9.233-.358-1.923 2.089-4.383 2.677-6.206 2.908.083 4.692.241 7 2 3.046-2.726 4.871-6.362 8-9 1.356 4.086 9.454 6.776 13.589 5.142 5.622-2.221 8.104-7.395 12.715-10.74 3.556-2.579 12.491-3.987 16.865-3.358 7.886 1.134 11.761 11.304 3.831 14.956 1.178 3.915 8.868 11.473 12.972 6.393 2.585-3.201 1.417-11.189 3.028-15.393 1.684 1.83 3.879 3.682 4.819 6.041.865 2.169.07 4.591.962 6.734 1.701 4.09 6.65 3.911 10.219 3.225-.789-3.158-4.073-6.613-3.552-9.931.937-5.975 7.042-2.187 9.631-.089 6.106 4.947 8.9 8.054 7.921 16.02-6.716.019-10.071 2.452-16.089 4.441-6.019 1.988-13.01.387-13.092 9.558-.035 3.872 3.651 6.675 5.181 10.001-7.496-.538-7.05-7.059-12.306-10.278-3.173-1.944-5.131.529-6.694-3.722 3.339-.254 11.354-4.253 5.681-7.971-2.82-1.849-5.911.205-8.77.712-3.607.639-8.326-.336-11.308 2.348-7.339 6.61 3.968 18.566 8.115 23.082 2.438 2.654 6.221 6.142 9.282 2.829h2c4.825 6.551 14.974 3.041 21.911 4.259 2.812.494 5.687 2.436 8.52.878 2.332-1.282 2.405-3.806 2.569-6.137 5.039 0 11.371-1.072 15.611 2.222 5.418 4.209 7.284 14.263 14.389 15.778-6.423-10.678 7.522-15.964 14.739-21.009 2.562-1.791 4.801-4.058 7.261-5.991l-5-10c5.454 1.702 14.008 3.792 17.767-2.531 1.364-2.294-.638-4.186-.732-6.469-.069-1.672 1.155-3.193.809-4.876-.9-4.382-6.692-3.635-9.844-3.124-.734-6.938 0-14.012 0-21h3c-.212-8.765-9.462-16.975-18.039-18.661-4.257-.836-8.676.036-12.961-.527-5.274-.694-9.476-3.093-14.996-2.768-4.272.251-7.626 2.224-12.004 1.956v-10c-5.783.275-11.586-.29-17 2 .225-2.855 1.169-6.075.542-8.91-1.11-5.014-7.933-10.557-12.581-12.171-3.478-1.207-7.228-.449-10.675-1.673-4.014-1.425-6.815-4.945-10.725-6.478-3.671-1.44-7.759-.34-11.561-1.032-4.206-.765-7.879-3.504-11.83-5.048-9.158-3.578-16.856-1.236-26.17-1.781-6.405-.376-12.568-2.982-19-3.752-6.471-.775-12.665.215-18.999-.344-6.226-.55-12.389-6.402-18.755-5.302-6.867 1.188-12.881 4.054-18.441 8.235-3.477 2.614-6.418 7.17-10.823 8.028-2.467.482-6.382 1.345-8.866 1.009-5.484-.742-11.013-5.652-16.401-7.415-10.627-3.475-30.4-3.527-39.601 3.434-2.524 1.91-5.184 5.08-5.729 8.289-.566 3.331.801 6.488-1.903 9.227-5.126 5.19-8.696 1.606-14.286 2.269-7.6.902-13.03 3.857-19.62 7.401-9.724 5.23-18.524 10.186-15.576 23.014z" fill="#fdfdfd"/><path d="M442 104c-1.884 2.623-6.186 6.956-4.378 10.542 1.163 2.307 4.303 1.556 6.379 1.622 5.679.179 8.941.958 13.999-2.164-4.045-4.557-10.923-6.539-16-10z" fill="#020202"/><path d="M630.333 119.667c-.055.055-.111 1.111.334.666.055-.055.111-1.111-.334-.666z" fill="#fdfdfd"/><path d="M450 121c-1.551 2.297-2.713 4.184-2.942 7.015-.231 2.851-.192 6.101.792 8.814 4.237 11.679 20.148 12.327 25.15 23.171-4.612.531-7.843 3.774-3.276 7.656 5.13 4.361 14.947 4.462 21.261 5.569 5.631.987 9.001 6.599 15.004 6.623 4.905.019 13.573-5.575 15.837-9.867 1.825-3.462 1.88-7.276 3.363-10.807 1.391-3.312 3.849-5.663 4.811-9.174-7.038-.022-10.713 7.212-16 11l-1-4c-2.508.074-5.593 1.319-7.996.981-6.536-.919-3.707-6.511-2.624-10.151.76-2.551-.214-5.197.263-7.791.741-4.038 4.279-8.421 2.329-12.695-1.261-2.763-4.284-3.236-6.986-3.325-6.496-.214-10.333 2.662-11.986 8.981l-10 1c.211 6.361 5.518 7.327 7 13-8.046-1.172-16.342-6.532-22.884-11.169-1.713-1.214-4.108-1.849-5.527-3.416-2.993-3.305-1.05-8.048-4.589-11.415m-45 5v-2c-7.831-2.083-15.137 7.084-11.258 14.681 1.191 2.332 4.573 2.623 6.231.576 3.094-3.819.932-9.164 5.027-13.257m109-2c1.097 3.883 3.098 4.725 7 5-1.704-3.148-3.463-4.438-7-5m29 0c-2.374.662-3.716 1.547-5.5 3.305-1.475 1.453-3.361 3.064-4.266 4.963-3.413 7.156 15.834 10.94 14.43.873-.439-3.144-3.495-6.133-4.664-9.141m28 9c1.457 1.103 1.897 1.543 3 3 4.376-1.235 5.986-4.769 7-9-6.718-4.217-7.622-.148-10 6m-200 3c.094-2.23 1.299-6.434-.113-8.353-2.356-3.201-8.961 2.215-9.99 4.577-3.957 9.075 11.616 14.723 16.611 19.409 2.516 2.361 4.108 8.222 8.527 7.085 6.292-1.618 11.396-10.123 6.325-15.054-4.694-4.564-14.954-7.527-21.36-7.664m211-9v3h2v-3h-2m3 6c.219 6.582 4.213 6.25 7.971 10.684C597.8 149.38 599.269 157.612 608 159c1.446-3.979 4.806-5.556 7-9-6.831-5.694-9.636-11.051-19-13l-1-7-10 3m-164 0c-2.809 3.773-6.135 8.962 0 11 1.36-3.809 1.986-6.932 2-11h-2m201 1c-1.848 3.715-.495 6.092 0 10h4c-.135-4.219-1.237-6.822-4-10m-106 10c3.659-.271 5.631-1.185 8-4-3.898-.342-6.637.088-8 4m-82-1c.469 5.174 2.934 11.165 8.174 13.272 2.784 1.12 5.924.511 8.826.987 5.371.881 11.032 3.702 13-3.259-7.367-.607-23.013-4.415-27-11h-3z" fill="#020202"/><path d="M488 143l1 1-1-1m-163 4c-5.017 3.86-10.314 1.498-15.996 2.419-6.518 1.057-10.594 6.619-17.004 1.581h-2c-2.872 3.122-5.059 6.21-7 10-4.22-.993-7.753-.536-12 0-.847 5.674-4.663 6.289-7.744 10.4-3.437 4.587-2.328 8.754-4.333 13.426-2.311 5.386-6.497 7.773-6.923 14.174 4.929-2.539 7.701-7.575 8-13 15.157 1.069 24.336-14.543 40-15-2.513 5.476-10.831 8.513-9.647 15.868.339 2.109 1.819 4.182 2.647 6.132 2.041-.14 6.398-2.236 8.141-1.407 3.01 1.43.357 5.703-.777 7.407-3.628 5.456-8.502 13.862.636 17 1.25-3.501 1.468-7.306 2.768-10.711 3.461-9.068 12.22-16.1 20.478-20.668 3.927-2.172 13.366-8.223 15.632-.406 1.262 4.352-4.84 7.795-7.627 9.791-3.296 2.36-5.232 6.281-8.591 8.422-4.247 2.708-13.24 2.248-6.976 9.557.879 1.025 1.935 1.908 2.853 2.899 1.507 1.629 2.78 3.66 4.726 4.813 2.872 1.702 6.534 1.3 9.737 1.303-.047-3.935.046-6.657-4-8 .392-8.438 5.235-11.562 12-15.611 2.086-1.249 4.369-3.161 6.949-2.967 2.321.175 3.975 1.943 5.715 3.272 1.652 1.262 4.236 2.416 4.968 4.515 1.588 4.553-5.384 7.257-7.738 9.881-1.811 2.017-1.816 4.35-1.894 6.91 8.018-.538 14.781-6.793 23.08-7.284 8.12-.481 15.697 6.764 22.92 9.284-1.217 2.738-2.588 4.219-5 6 2.401 5.652.397 8.266 0 14 6.541 1.851 13.535 9.766 16 16-7.247-1.059-12.206-6.564-20-6.896-10.33-.439-17.919 7.378-26.428 11.747-8.294 4.259-17.69 3.543-19.572 15.149 7.465-.589 16.679-1.81 23.91.875 4.671 1.734 9.843 9.259 15 8.667 2.507-.288 3.959-2.875 5.553-4.528 2.673-2.773 6.159-6.209 9.721-7.786 4.014-1.778 8.469.464 12.111-2.376 4.046-3.156 4.296-9.596 9.749-10.743 3.065-.645 6.837-1.15 9.782.133 5.035 2.193 7.643 7.836 13.174 9.325 3.384.911 10.488 1.409 12.667-2.001 1.257-1.966.733-4.392 1.149-6.566.528-2.765 1.785-5.184 2.184-8-2.487.076-4.889.025-6.79 1.89-2.454 2.406-3.437 6.437-7.289 7.183-9.695 1.879-11.706-10.933-14.976-16.407-2.306-3.861-5.733-6.208-6.945-10.666l-7-3c2.851-6.334 7.649-9.458 8-17-6.694.52-9.334 8.141-11 14-12.76-.701-2.798-10.789-6.189-18.711-2.858-6.677-9.288-9.264-13.811-14.289-3.382.795-6.42 2.227-10.001 1.866-4.858-.49-8.978-2.759-13.999-2.866-.979-4.804.987-10.679-2.344-14.756-2.519-3.083-6.349-.322-9.641-.916-5.094-.919-10.083-4.751-15.185-6.238-5.206-1.517-20.281-1.485-21.86-8.183-.737-3.127 2.273-5.481 4.067-7.558 2.891-3.345 5.361-6.938 5.963-11.349h-2z" fill="#fdfdfd"/><path d="M653 148v2c2.377.572 4.558.891 7 1-1.719-3.267-3.452-3.637-7-3m7 29c-.176-5.28-2.669-5.77-5.407-9.708-1.868-2.687-2.452-6.086-2.48-9.291-.015-1.77.676-4.578-.901-5.915-2.521-2.138-3.909 2.268-4.103 3.933-.658 5.647-1.731 16.701 4.231 19.892 2.593 1.387 5.82 1.081 8.66 1.089m30.333-20.333c-.055.055-.111 1.111.334.666.055-.055.111-1.111-.334-.666M566 163c2.68-.744 3.719-1.529 5-4-2.936.627-4.013 1.147-5 4m108 13c-.565-2.398-1.492-4.651-2.175-7.025-.865-3.006-6.558-13.642-10.222-6.537-2.155 4.178-.743 14.874 4.606 16.226 2.952.746 5.455-1.193 7.791-2.664m-125-15c-.202 1.85-.202 3.15 0 5h2l1-5h-3z" fill="#020202"/><path d="M514 163l-1 1v2c2.364-.482 2.518-.636 3-3h-2z" fill="#fdfdfd"/><path d="M431 170h9c-1.429.855-2.864 1.701-4.266 2.6-1.984 1.273-6.756 6.106-1.516 6.894 5.015.754 14.429-3.692 15.782-8.494-3.347-1.748-5.448-3.535-7-7-5.701.02-9.022.849-12 6m-166 10c5.575-.889 11.929-5.688 14-11-6.111.923-13.03 4.394-14 11m260-3h5v-6c-3.464.978-4.482 2.474-5 6m-224 13c4.754-2.221 9.146-5.629 10-11-8.243.378-9.994 3.134-10 11z" fill="#020202"/><path d="M718 209l-6 1c.59 3.706 2.71 6.482 3.585 10.039.737 2.997-.291 6.629 1.403 9.348 1.878 3.012 6.114 3.156 7.987 6.042 2.535 3.904-1.459 14.301-3.975 17.571l2 3 3-2c.439 1.964.713 4.558 2.563 5.782 4.395 2.909 7.898-2.111 8.437-5.782-3.71-.335-6.595-1.609-10-3 7.346-6.598 7.268-14.722 8-24h-9c.014-1.667-.043-3.364.188-5.021.178-1.271.425-2.647 1.04-3.793 4.978-9.276 11.666 5.346 15.806 9.255 2.453 2.315 5.831 2.637 8.22 5.309 4.417 4.939 7.898 12.461 7.673 19.239-.119 3.613-2.636 7.06-1.409 10.69 1.856 5.492 8.471 7.666 10.482 13.321 10.849-3.066 2.944-22.377-.942-28.753-2.538-4.164-8.034-8.004-9.544-12.431-1.369-4.013-.114-8.591-1.219-12.727-1.294-4.841-4.762-8.78-6.656-13.378-2.727-6.621-3.927-13.143-8.448-18.953-5.349-6.876-15.93-8.651-23.905-5.587-1.852.711-5.814 1.812-6.42 3.972-.513 1.826 1.092 4.183 1.599 5.882 1.515 5.074 4.767 9.821 5.535 14.975z" fill="#fdfdfd"/><path d="M631 196c.308 4.376 1.552 6.346 6 7l-1-7h-5z" fill="#020202"/><path d="M235 219c1.654-4.334 3.771-8.891 6.245-12.83.995-1.586 3.089-3.192 3.163-5.19.118-3.2-3.64-4.082-5.994-3.038-3.325 1.474-9.883 6.018-11.432 9.394-2.16 4.707 3.997 10.533 8.018 11.664z" fill="#fdfdfd"/><path d="M658 211c1.322 4.791 4.282 5.849 9 6 4.045-7.694 15.003-11.252 16-20-12.099.042-16.257 7.574-25 14z" fill="#020202"/><path d="M472 209v2h3v-2h-3m22 11v4l3-1v-2l-3-1m8 6c2.209-.684 2.703-1.08 4-3-2.297.674-2.774.965-4 3m192-3c1.56 1.888 2.804 2.928 5 4-.987-2.853-2.064-3.373-5-4m-82 3c1.248.685 1.548.749 3 1-1.248-.685-1.548-.749-3-1m-274 1c-1.109 3.104-1.902 5.677-2 9 3.27-.246 5.244-1.263 8-3l-2-6h-4m-120 36v-2l-5-2c1.871-5.117 7.167-6.284 8-12h3c.108 9.598 6.739 10.692 13.338 15.974 2.541 2.034 5.13 5.932 8.583 6.337 5.101.599 11.756-2.082 17.079-2.311.435 3.191 3.559 11.273 8.122 7.664 1.828-1.446 2.101-4.289 3.217-6.229 2.139-3.72 4.971-7.288 8.661-9.435l7 18h2c4.194-7.712 8.777-19.491 18.17-22.49 3.892-1.243 8.784-.51 12.83-.51v3c5.662-.313 7.687-2.338 8-8-2.745-.981-5.072-1.805-8-2 1.763-3.024 3.558-3.615 7-4-4.135-6.56-13.129-6.574-19.985-7.054-2.832-.198-5.317-1.481-8.105-1.817-8.851-1.067-17.483 1.691-24.645 6.878-8.197 5.936-11.951 16.978-23.34 18.912-4.797.815-9.47-5.328-7.517-9.735 2.236-5.044 8.813-7.457 13.592-9.184-.843-9.203-6.658-7.271-13.961-8.129-2.701-.317-5.228-1.907-7.988-1.673-3.338.284-5.365 3.191-8.221 4.579-6.207 3.016-13.187 4.759-17.397 10.903-1.828 2.667-3.708 14.047-.827 16.278 1.814 1.404 4.435.487 6.394.042z" fill="#fdfdfd"/><path d="M242 240c2.745.764 4.255.764 7 0-2.313-3.209-4.687-3.209-7 0z" fill="#020202"/><path d="M633 240l3 3c.951-2.507-.652-2.706-3-3m44 3c-1.336 1.826-1.69 2.753-2 5 2.276-1.453 2.873-2.388 2-5m-38 1c.823 3.302 2.03 5.31 5 7-.562-3.537-1.852-5.296-5-7m-175 14c9.222-.718 1.359-8.144 0 0z" fill="#fdfdfd"/><path d="M377 273c8.84-2.491 4.269-13.526-3.155-14.717-3.785-.607-6.948 2.55-4.654 6.222 2.141 3.431 5.967 4.528 7.809 8.495z" fill="#020202"/><path d="M724 270c.644 4.418 2.594 6.325 7 7-.174-5.223-1.796-6.712-7-7m-418 8c1.306 2.437 2.563 3.694 5 5-.863-3.065-1.935-4.137-5-5m413 2l-1 4c2.897 1.93 4.536 2.588 8 2-1.084-3.846-3.24-5.003-7-6m-58 48c-3.587.878-8.218 4.799-11.9 4.223-4.357-.682-3.38-6.677-7.328-7.906-8.436-2.626-19.911.402-27.449-5.406-3.102-2.389-.749-4.89-.856-7.911-.082-2.31-1.825-4.659-3.012-6.55-7.56-12.044-23.461-23.342-37.835-15.225-2.849 1.608-4.441 4.474-6.62 6.775 1.579 2.95 5.295 4.25 6.538 7.209 2.099 4.996-5.841 8.838-9.627 9.531-5.488 1.005-11.357-.031-16.911.349-4.403.302-8.764 1.941-13.08 2.196-4.703.279-8.583-2.223-13.496-.535-7.971 2.739-14.157 8.076-20.424 13.46-3.799 3.264-8.749 5.813-12.247 9.25-2.074 2.037-2.71 4.971-4.462 7.23-2.75 3.544-6.751 6.213-9.853 9.464-3.439 3.605-6.379 7.854-9.933 11.307-5.763 5.602-14.359 6.56-19.986 12.67-4.351 4.724-5.354 11.562-9.228 16.559-3.512 4.529-9.503 7.31-12.063 12.61-1.93 3.996-.667 8.421-1.492 12.61-1.015 5.154-6.255 9.043-10.736 11.09v-5c-8.675 3.008-8.5 8.427-10.558 15.961-.901 3.298-3.938 5.701-4.516 9.054-.482 2.794 1.302 5.316 1.8 7.985.762 4.084-.671 8.774.838 12.696 1.229 3.192 4.727 3.99 6.423 6.718 2.028 3.264.454 6.279 4.013 8.586v3c-5.242.748-12.902-1.821-17.667.603-4.829 2.457 2.18 15.66-8.14 12.209-1.421-.476-2.805-1.245-4.193-1.812-5.273 6.439-6.531 8.11-3 16-4.856-.72-8.288-5.231-13.079-5.608-2.026-.16-4.063.946-5.921 1.608-1.531 6.489-8.42 7.782-10.343 13.286-1.965 5.627 8.88 13.642 13.343 14.714 1.709-5.359 6.239-4.085 11-4v-6c8.18.239 14.912 6.104 22.996 6.747 5.326.423 7.748-3.787 6.442-8.654-.903-3.365-3.56-5.673-4.438-9.093 3.806.079 10.339-.202 13.566 2.027 2.218 1.531 1.901 4.328 3.446 6.271 1.894 2.381 6.234 3.575 8.988 4.702 2.144-3.159 4.327-5.896 3.761-9.961-.682-4.897-5.952-9.763-1.327-14.391 3.369-3.372 8.189-3.909 12.397-5.493 2.986-1.124 5.447-3.323 8.455-4.402 2.813-1.009 5.883-.792 8.713-1.771 5.295-1.832 8.079-7 13.091-9.142 8.209-3.508 20.078-.283 28.08 2.325 4.161 1.356 18.437-1.931 18.842 4.854.376 6.315-9.833 10.554-13.683 13.883-3.803 3.289-7.758 6.734-10.628 10.899-2.043 2.966-3.304 7.075-6.196 9.356-4.743 3.742-15.602 6.515-21.509 7.735-7.38 1.524-21.062-3.204-25.652 4.077-4.153 6.588-.153 15.056 6.129 19.047 1.843 1.171 4.131 1.076 5.839 2.547 2.417 2.081 3.217 5.413 6.067 7.138 5.285 3.201 9.091 3.057 9.621 10.299-3.95.315-8.184 2.577-12 2.467-3.419-.099-5.77-3.51-9.116-3.722-6.478-.409-9.658 9.414-9.884 14.255-2.872.235-6.132.435-8.586 2.136-4.988 3.458-8.407 15.203-2.574 19.491 2.551 1.876 6.302-1.421 9.164-1.33 3.871.124 7.298 2.775 10.996 3.703-1.227 5.884-5.435 5.042-8.968 8.943-3.723 4.11-4.754 12.106-3.032 17.057 1.84-.425 4.009-1.48 5.921-1.266 5.263.59 6.056 6.877 10.343 8.677 3.742 1.572 7.303-.012 10.736 2.589h2c1.543-1.267 2.048-1.489 4-2-.057-4.839-2.326-8.369-3-13 3.316-.537 5.099-1.202 7-4-2.282-1.65-4.387-2.953-7-4v-2c8.993-3.601 14.59-10.541 20.62-17.864 3.925-4.768 5.256-9.554 12.38-9.136-.934 1.723-1.535 3.106-2 5 7.886.001 13.812.445 19 7-7.142.001-13.194.115-17 7 2.254.749 3.314 1.344 5 3h2c4.079-3.857 9.016-3.576 10-10 10.693 0 38.281.685 35-17-4.607 1.811-7.892 4.539-13 5 1.141-3.663 6.709-9.308 10.921-9.266 4.362.043 8.112 2.361 12.601.498 2.751-1.141 4.385-3.835 6.647-5.643 5.15-4.115 11.92-8.956 18-11.513 4.844-2.038 7.366 2.767 11.716 1.908 3.044-.602 4.418-4.342 7.303-5.51 2.356-.955 4.77-.95 6.703-2.818 2.989-2.888 3.022-7.426 5.863-10.411 2.738-2.878 8.409-4.91 6.663-9.956-2.333-6.742-9.395-3.403-14.247-5.187-5.613-2.064-10.494-5.462-15.591-8.457-2.15-1.263-4.487-1.053-6.675-2.039-3.298-1.487-4.736-5.459-5.904-8.606-7.053.228-10.232 4.453-15.261 8.798-8.734 7.546-17.173 16.455-27.039 22.557-5.987 3.702-16.592 5.694-20.7-1.355 9.074-1.439 12.52-7.68 19.005-13.16 7.392-6.247 16.9-11.001 23.321-18.344 7.954-9.096 13.566-24.069 24.117-30.518 6.424-3.927 18.176-1.917 25.557-1.978-4.467 7.758-24.913 11.651-17.701 24.624.861 1.548 2.342 2.975 3.719 4.07 4.439 3.532 9.371.905 14.152-.239 4.551-1.088 9.114-1.082 13.66-2.531 3.808-1.213 7.453-3.56 11.336-4.436 4.944-1.114 8.603 3.018 13.004 4.408 7.077 2.235 16.606 2.99 23.96 3.791 4.133.449 8.613-4.707 12.547-2.556 2.843 1.554 1.484 4.881.588 7.151-2.054 5.207-5.607 10.84-11.279 12.419-2.111.587-5.081.745-5.535 3.438-.439 2.597 1.9 5.336 2.325 7.876.704 4.203-1.565 9.822-.084 13.672.985 2.559 5.136 3.715 7.018 5.707 3.431 3.63 5.248 8.098 8.17 12.012 1.803 2.414 4.336 4.242 6.244 6.594 2.735 3.372 5.655 13.201 10.085 14.184 3.936.873 8.148-7.551 11.791-9.184 0-3.696.67-8.173-.549-11.711-.963-2.793-3.397-4.764-4.552-7.46-1.811-4.225-1.411-11.39-.416-15.814 1.417-6.3 9.579-6.343 10.659-12.123 1.12-5.991-.826-11.887-7.142-12.892-1.09 4.283-2.437 9.871-4.418 13.791-1.345 2.659-3.765 4.165-4.354 7.252-.958 5.022 1.336 13.916-4.638 16.835-2.556 1.249-4.572-.824-5.576-2.972-1.858-3.974-.337-8.737-2.181-12.212-3.094-5.833-8.757-8.332-9.833-15.694 4.437.304 8.803 6.108 12.718 4.722 11.745-4.156 4.556-17.531 3.568-25.722-1.691-14.013-9.478-24.838-16.736-36.615-6.446-10.459-12.025-21.441-17.43-32.516-4.417-9.052-8.372-19.627-13.67-28.064-1.718-2.735-4.431-7.193-7.71-8.182-4.55-1.373-4.29 4.433-5.71 7.001-3.568 6.452-8.486 9.186-9.03 17.376-7.169 1.06-11.447 5.11-17.439 8.7-3.718 2.228-7.745 3.477-11.141 6.321-2.548 2.133-4.394 4.989-7.086 6.986-4.371 3.242-10.097 1.838-14.909 3.807-4.451 1.822-8.053 5.368-12.429 7.377-5.682 2.609-11.787 3.858-17.826 5.065-2.694.538-5.286 2.415-8.119 2.122-3.601-.372-5.765-5.089-8.809-6.903-6.632-3.95-14.245-7.317-20.512-11.622-3.571-2.453-5.699-6.36-9.349-8.718-3.585-2.316-8.538-3.658-12.666-4.679-3.827-.946-7.846-.015-11.676-1.01-13.59-3.531-37.409-19.625-23.649-34.932 2.768-3.08 6.411-6.087 9.7-8.601 3.864-2.954 8.62-6.568 13.081-8.533 4.51-1.988 9.23-2.62 13.659-5.071 4.655-2.575 8.019-6.659 13.26-8.331 12.558-4.008 26.008-5.205 38.895-7.421 6.055-1.041 11.898-3.243 18.015-4.232 3.233-.523 6.641.127 9.826-.604 2.773-.636 4.512-3.452 7.258-3.884 2.243-.353 4.825 1.446 6.866 2.199 5.759 2.122 12.187 5.095 18.139 6.391 3.305.72 5.608-1.303 8.741-1.388 4.74-.127 8.405 3.906 12.17-1.039 2.649 1.858 4.786 1.965 8 2v-4c4.893.615 9.109.385 14 0v4c-4.218.687-10.141 4.113-10.473 9.054-.371 5.523 6.403 13.207 11.473 13.946.678 1.973 3.434 5.967 5.919 3.192 1.693-1.891-.964-5.674-.352-8.033 1.384-5.331 7.939-8.321 1.124-13.219-.838-.602-1.725-.649-2.691-.94v-4c2.872.121 6.974 1.357 9.571-.218 3.005-1.821 3.51-6.013 6.734-7.933 3.621-2.157 9.604-3.788 13.695-4.849 1.744-3.168 3.435-3.731 7-4-1.23 5.609-5.6 9.292-6 15 2.375.975 4.452 2.353 6.754 3.486 3.46 1.704 10.227 1.492 8.678-4.226-1.221-4.506-5.678-8.665-7.432-13.26 3.815 1.47 6.745 2.972 8 7 5.707 2.559 6.976 7.508 14 6l-3-6c10.907.171 12.596 22.614 24 17-3.33-5.919-5.503-12.497-9.05-18.385-2.302-3.822-5.307-6.022-5.95-10.615-3.133-1.402-5.512-2.744-9-3-.327-1.958-.7-3.206 0-5-3.82-4.769-7.998-7.634-9-14h7c.315 2.33.902 3.918 2 6 6.7-6.38-1.239-10.732-2.24-17.039-.771-4.857 4.853-8.08 3.872-12.79-.73-3.503-5.011-4.921-7.448-7.006-5.252-4.495-8.848-13.368-16.34-14.846-3.243-.64-5.908 1.388-8.598 2.856-5.549 3.028-12.814 9.236-19.249 9.543-3.562.169-6.483-2.592-9.916-2.325-2.852.223-4.886 2.591-7.37 3.713-2.351 1.061-5.172 1.302-7.711 1.608-2.814.34-8.743-.663-9.087 3.394-.59 6.959 10.709 12.22 16.101 13.048 5.713.878 9.754 5.209 15.232 6.319 4.079.826 16.593-7.484 15.49 3.186-.187 1.807-.621 3.507-.736 5.339m-327-37h-9v9c7.294-.553 12.334-7.022 19.156-8.471 4.149-.882 8.311 2.09 12.735 1.323 2.234-.388 4.216-2.051 3.258-4.553-1.22-3.187-6.35-2.12-8.979-2.755-7.161-1.729-16.419-5.223-17.17 5.456m-52-7c-1.214 7.833 4.754 7.494 5 0h-5m-37 27c-3.229-1.127-6.301-2.423-8.907-4.714-2.092-1.84-3.585-4.806-6.277-5.874-4.046-1.604-6.889 3.019-10.827 3.175-5.443.217-9.217-3.834-14.989-2.587v2c3.207 3.061 3.894 5.626 4 10 2.403-.168 3.46-.197 5-2h2c4.872 6.4 11.936.996 17-2-2.605 4.189-4.309 8.626-8 12v2c2.545 2.838 4.48 6.495 6 10l5-2c.017 4.919.117 7.954 5 10 .871-3.573.656-5.715-3-7 1.028-5.619-1.425-15.947 5.34-18.878 2.774-1.202 5.253 1.605 6.096 3.972 1.534 4.308-.551 12.692 7.279 10.381 5.081-1.5 8.748-7.055 12.745-10.245 4.489-3.583 9.88-5.087 14.576-8.194 2.028-1.341 5.018-4.718 2.321-7.009-2.218-1.883-6.737-.856-9.187-.049-7.989 2.635-12.881 9.667-20.17 13.022v-4c7.665-2.63 11.958-12.77 20-16l-1-4c-1.778-.391-4.033-1.49-5.867-1.266-2.527.308-4.329 2.832-6.389 4.096-6.477 3.977-13.703 8.491-17.744 15.17m130-20c-.819 2.106-1.488 3.347-3 5 3.836 1.052 4.728-1.581 5-5h-2m332 3c.155 4.724 1.11 6.619 6 7-.609-3.975-2.09-5.921-6-7m-376 20c6.857-.379 9.031-5.727 14.242-9.501 1.467-1.063 5.283-3.331 2.908-5.489-2.567-2.331-6.699.147-8.953 1.615-6.026 3.923-9.069 5.794-8.197 13.375m-53 9c9.649 3.1 17.864 2.592 28 3.039 5.553.246 10.406 1.884 16 .961-.315-2.33-.902-3.918-2-6-3.833 1.606-6.923-.476-10.576-1.91-7.612-2.987-30.123-7.4-31.424 3.91m475-5c-2.947 2.065-6.461 1.492-10 2 .891 6.733 3.291 13.373 4.031 20.196.6 5.534-1.073 10.816 5.969 12.804 3.334-8.664 14.444-19.579 6.615-29.12-1.864-2.272-4.235-4.189-6.615-5.88m-452 12l-1 4c4.658 1.624 15.108 6.732 17 0-5.832-.068-10.367-2.879-16-4m401 9v2h2v-2h-2m-437 38c1.608 1.45 2.064 2.051 3 4 6.643-1.834 5.347-6.993 9.863-10.892 3.661-3.161 9.244-5.777 13.433-8.268 1.73-1.029 4.329-1.472 5.416-3.334 1.79-3.064-1.657-4.836-3.712-2.506-4.47-6.234 2.165-6.656 4-12-9.364.001-12.958 2.936-20.261 8.287-2.828 2.072-6.801 3.807-8.524 7.039-1.42 2.66-.234 5.816-.558 8.67-.357 3.139-1.933 5.963-2.657 9.004m-39-10c-1.267 2.654-4.165 4.655-3.782 7.884.347 2.927 3.857 10.12 6.782 6.116 3.072 8.076 8.673 9.828 17 10 .511-1.952.733-2.457 2-4-1.718-1.976-6.344-4.499-6.554-7.238-.234-3.046 4.055-6.334 4.554-9.762-2.225-.026-4.611.149-6.623-.988-1.967-1.111-3.166-3.867-5.536-4.224-2.301-.347-5.517 1.761-7.841 2.212m30 7c-.934 1.723-1.535 3.106-2 5l5 1c-.389-2.739-.987-4.1-3-6m490 10l5-1v-5c-3.464.978-4.482 2.474-5 6m-235 27c1.677 5.943 5.222 3.493 10.015 3.039 9.142-.865 17.705-3.925 26.985-4.035 3.489-.042 10.163 1.26 12.663-1.883 1.851-2.328-.117-4.929-2.145-6.277-3.93-2.612-8.905-3.793-13.519-4.228-13.158-1.242-23.886 6.235-33.999 13.384m175-3v2c5.952 2.883 11.904 3.664 18 6-.07-6.216-3.216-13.283-10.834-11.718-2.596.534-4.902 2.427-7.166 3.718m-470 5v3c5.847 1.53 10.432 2.352 11-5-4.068.014-7.191.64-11 2m325 10c1.248.685 1.548.749 3 1-1.248-.685-1.548-.749-3-1m8 1l-1 4h6c-.782-1.584-1.87-2.6-3-4h-2m139 3v4c2.205-.094 3.894-.356 6-1v-2c-2.106-.644-3.795-.906-6-1m-136 17c4.238-.012 8.406.533 10-4-4.238.012-8.406-.533-10 4m152.145.176c-3.303.541-4.369 9.873-5.766 12.628-1.882 3.711-3.477 7.671-6.357 10.753-2.035 2.179-5.753 3.508-6.548 6.586-2.018 7.809 7.545 14.007 14.356 12.575 14.491-3.045 11.454-19.396 8.88-29.718-.653-2.62.17-13.6-4.565-12.824z" fill="#fdfdfd"/><path d="M625 454v3h3v-3h-3z" fill="#020202"/><path d="M353 465c.545 6.829 8.997 9.154 15 8v-2c-5.622-3.276-8.068-7.216-15-6m-91 6c-.545 1.635-.365 1.455-2 2 4.779 6.007 10.938 11.172 16.299 16.665 3.757 3.849 4.895 7.673 10.701 8.335.926-14.688-14.564-18.341-23-27h-2m84 16c4.7 8.131 11.336 5.708 19 4v-3c-6.49-.135-12.623-2.867-19-1m-89 3l2 4c.683-1.506.826-2.315 1-4h-3z" fill="#fdfdfd"/><path d="M617 494v2l1 1c2.121-1.081 2.919-1.879 4-4l-5 1z" fill="#020202"/><path d="M241 501c5.695 3.609 11.052 8.534 18 9v-4c-5.883-2.182-13.295-13.526-18-5m56 5c1.579 4.021 3.865 4.615 8 4v-3c-2.709-.648-5.216-.942-8-1m-51 27c-.681-7.509-6.23-11.32-3-19-13.735-.561-4.973 16.772 3 19m77-10c5.09 9.141 18.982-2.282 21-9-9.344.006-13.687 3.777-21 9m10 11l1 1-1-1m39 12c2.887.528 4.375.306 7-1v-2c-3.788-1.882-5.829-1.152-7 3m-15 4l1 4h2l1-1v-2l-4-1m48 0v3h2v-3h-2m-61 24c-1.62-2.642-2.519-4.936-3-8 5.192 2.499 10.462 2.319 16 1-.57-2.382-1.362-4.668-2.809-6.699-.949-1.331-2.103-2.304-3.456-3.201-1.864-1.236-4.307-2.906-6.65-2.24-8.828 2.511-11.059 18.326-.085 19.14m281-20v6h5v-6h-5m-229 12c0 2.833-.693 6.973 1.028 9.427 2.251 3.211 6.582 2.048 9.801 3.122 7.349 2.453 13.788 9.569 19.849-.284 1.973-3.207-.698-5.9-2.393-8.526-3.621-5.608-11.956-10.392-19.195-9.139-3.424.593-5.944 4.002-9.09 5.4m-27 12c-.469 3.227-.15 6.734-1.213 9.829-1.492 4.346-5.331 8.155-4.189 13.078.962 4.145 6.909 9.114 11.322 8.686 2.266-.221 4.049-1.971 6.119-2.754 3.094-1.17 6.734-.97 9.961-.55 6.823.889 11.627 5.056 18 6.711-.389-5.857-1.379-9.127 0-15-5.028-2.31-8.134-5.85-12.666-8.701-4.472-2.813-11.248-4.032-16.259-5.967-3.894-1.504-7.004-4.275-11.075-5.332m-53 6c-9.482 10.356-7.803 24.67-4.552 37.039.969 3.69 1.102 7.246 2.987 10.696 1.488 2.725 4.04 3.76 6.041 5.949 2.818 3.082 4.258 8.267 4.524 12.316 4.855 1.236 8.911 3.58 14 4 .406 2.092.217 2.02 2 3-3.78 5.398-1.51 10.542 5 11 1.012-5.134 3.284-9.83 4-15 6.145.992 7.667 7.274 14 8 0-7.113-.888-13.937 0-21l8-2c-.32-6.888-3.671-14.483-6-21-8.416 1.82-5.275 10.585-5 17h-4c-1.291-4.294-5.042-6.237-7.24-10.015-5.273-9.06-10.622-18.012-16.377-26.79-1.628-2.484-2.169-6.4-4.24-8.438-1.956-1.924-4.725-.933-7.127-1.432-2.318-.482-4.138-1.982-6.016-3.325z" fill="#fdfdfd"/><path d="M489 593c2.996-.225 4.249-.552 6-3-2.877.318-4.334.62-6 3m-31 11c-3.788 2.814-6.463 2.558-11 2l1 7h-5c2.129 6.119 10.039 5.285 13.968 1.011 2.538-2.763 2.381-6.796 1.032-10.011z" fill="#020202"/><path d="M694 630l5-2v-7c-4.861 1.341-5.991 4.238-5 9m-205 0v3h3v-3h-3m148 11c-2.189 5.953-7.1 3.922-11.536 7.26-2.721 2.047-4.671 5.261-7.764 6.802-2.66 1.326-5.862.844-8.685 1.666-1.973.575-4.034 2.028-6.131 2.034-3.472.01-6.656-3.669-10.054-4.538-4.011-1.027-7.855-2.899-11.869-3.746-2.879-.607-5.863-.277-8.675-1.228-10.333-3.494-20.904-8.486-32.197-5.951-2.869.643-5.194 2.588-8.104 3.219-7.421 1.609-12.828.552-19.714 4.706-6.458 3.895-8.897 12.409-17.271 11.776 1.297-3.672.143-7.265 1.232-10.625 1.153-3.557 3.396-5.312 3.768-9.375-8.893-3.171-15.711 1.907-21.83 8.258-2.634 2.734-5.605 4.628-5.937 8.753-.322 3.998 2.105 6.286 4.268 9.275 1.774 2.452 3.409 5.949 6.584 6.854 2.613.744 5.406-1.428 7.929-1.932 6.466-1.292 13.064-4.412 18.687-7.971 5.011-3.172 8.448-7.34 14.299-9.237-.438 5.966-4.87 11.945-8 17 1.856 1.048 2.944 1.512 5 2 5.141-6.936 14.314-10.296 19-18 1.1 7.591-9.421 13.641-10 22h5c1.822-3.782 3.839-5.357 8-6-.004 4.726-.937 8.478-2 13 2.607.511 5.369.116 7.911.725 2.422.581 4.317 2.89 6.959 2.488 3.218-.489 5.681-2.828 9.13-3.213.482 2.364.636 2.518 3 3-.137 4.694-2.278 8.448-3 13l5 1c1.806-2.764 3.348-2.923 6-1 5.943-3.591 12.201-5.39 18.246-8.511 2.928-1.511 5.144-4.121 8.054-5.555 2.94-1.449 6.339-.97 9.271-2.608 4.236-2.365 6.053-7.42 10.473-9.317 3.371-1.446 7.139-.458 10.517-1.777 4.528-1.767 9.598-3.97 14.015-6.031 2.464-1.151 4.519-2.965 7.421-2.673 9.773.981 17.271 15.492 4.003 17.472-.806-3.229-3.214-8.336-7.252-5.328-5.897 4.394-8.332 12.36-14.748 16.328 1.295 4.598 4.508 5.592 9 6-1.815 2.258-3.83 4.067-6 6l2 3c3.094-1.929 7.384-4.921 11.08-5.27 2.819-.266 5.998 1.184 8.92 1.27.363 5.155 2.515 5.982 6.729 8.356 2.298 1.294 4.819 3.151 6.797.35 2.032-2.877 5.536-13.06 4.526-16.356-1.09-3.562-4.547-6.404-6.324-9.639-2.095-3.817-2.005-8.516-1.285-12.707.213-1.241.422-2.668.981-3.81 3.96-8.109 10.759 4.07 14.558-.041 2.164-2.342-.798-8.313-.982-11.153l7 2c.38-2.673.698-5.14-.394-7.711-.888-2.089-3.915-4.683-3.118-7.16.76-2.365 4.47-3.371 6.512-4.129a25.319 25.319 0 0 0-1.464-4.306c-.766-1.761-1.39-4.36-3.095-5.471-2.727-1.776-5.451.749-7.441 2.404-2.988 2.484-7.904 5.856-12 5.847-5.468-.013-9.287-5.887-15.001-6.26-7.045-.459-13.148 4.168-19.999 4.786m-337 3c-4.364 3.242-7.859 2.22-13 2 2.481 3.706 6.108 7.213 5.768 11.997-.59 8.295-7.384 11.548-10.768 3.003-12.421 1.819-8.379 16.617-16.15 22.286-4.799 3.501-10.452 5.118-15.554 7.973-3.283 1.838-5.631 4.752-9.311 5.976-4.767 1.586-9.287.752-13.985 3.064-8.066 3.968-13.642 11.159-21.17 15.648-7.105 4.237-15.932 8.248-23.869 10.514-7.021 2.004-14.544 2.911-21.232 6.014-3.038 1.41-5.693 3.483-8.729 4.855-4.613 2.085-9.795 3.031-14.116 5.724-3.673 2.29-5.748 6.075-9.754 7.902-8.502 3.878-18.176 4.19-26.96 7.018-10.276 3.308-20.747 6.717-30.885 10.403-3.597 1.307-6.763 3.744-10.374 4.935-3.168 1.046-6.638.565-9.91.974-5.623.704-11.37 2.436-16.911 3.673-5.027 1.122-10.836 2.082-15.666 3.786C11.784 783.736 6.015 786.609 0 787v24c0 3.772-.565 7.942 1.879 11.111C12.476 835.855 34.645 826.107 47 837h2c3.69-3.213 8.233-3.304 12.91-4.089C72.305 831.165 77.337 831.348 87 836v2c-7.915 3.033-24.077 2.284-27 12 2.997 1.088 4.052 1.95 5 5h-4c2.416 6.373-.366 10.307-7 12l1-9c-3.91 2.666-7.367 4.348-9 9h-2c-.332-3.986 3.187-8.151 2.223-11.751-1.033-3.861-6.079-4.05-9.226-4.535-3.444-.53-7.396-2.897-10.866-2.385-3.664.54-6.477 3.76-10.131 4.671v-8c-7.744-1.867-9.634-8.418-16-12 0 3.04-.525 6.751.938 9.536 1.612 3.065 5.027 4.653 6.766 7.648 1.866 3.212 2.262 7.124 4.1 10.352 1.662 2.922 4.564 4.945 6.603 7.594 1.48 1.923 2.617 4.486 4.857 5.666 2.43 1.281 5.136.302 7.721.632 2.592.332 4.888 1.695 7.095 3.007 5.355 3.184 11.945 11.326 18.05 12.232 4.839.719 6.094-4.941 10.338-5.659 3.77-.637 9.828-.582 13.362.887 3.6 1.496 6.436 4.497 10.26 5.548 7 1.924 15.372.082 21.337 5.575 6.063 5.582.365 12.406-5.297 14.939-7.471 3.342-12.225-.548-19.415-2.487-2.522-.68-5.147-.315-7.711-.658-7.776-1.042-15-5.689-23.12-6.093-8.9-.442-11.034 11.335-1.884 13.281-3.759 7.161-8.62 19.199.444 24.606 4.066 2.425 10.267.342 12.56 5.684 2.404 5.603-5.197 8.542-9.004 5.71-2.754 1.756-4.919 2.849-6 6 2.782.708 5.37 2.188 8.17 2.737 2.933.575 5.825.131 8.66 1.309 8.725 3.625 14.526 9.444 24.17 11.499 4.765 1.015 7.617-1.028 12.039-1.952 3.63-.759 9.214-.077 12.791.877 5.418 1.445 17.04 8.967 13.526 15.88-1.78 3.503-5.62 8.586-9.446 9.883-5.088 1.725-13.439-.259-18.91-.232-5.371.026-10.62 1.187-16 .96-4.2-.177-10.718-2.56-14.472.218-2.9 2.151-1.483 7.181-3.12 10.211-3.284 6.06-3.768 9-1.408 15.61h12c2.55-4.75 7.601-9.19 13-10 3.219-8.06 9.293-7.22 16-4-3.914 2.92-8.409 3.54-13 5 1.124 2.79 2.115 4.95 2 8 8.566 2.53 19.091 1 28 1-.423-4.66-4.771-8.06-5.003-12.12-.311-5.43 11.084-8.3 15.003-8.88.173 3.17.356 5.14 3 7v2c-4.158 3.38-1.581 7.84 0 12h6c-.049-17.63 3.232-34.949 1.946-52.961-.517-7.243-4.936-16.452.054-23.039-2.148-3.863-1.475-7.768-2.836-11.829-1.075-3.211-3.143-5.945-3.993-9.26-1.259-4.906-.545-9.85-1.43-14.741-1.495-8.26-3.932-16.797-6.182-24.884-1.328-4.768-2.937-11.619-5.403-15.822-1.798-3.064-4.889-5.388-6.219-8.753-1.202-3.04.035-6.28-1.636-9.247-5.077-9.017-14.896-17.066-21.52-25.115-6.945-8.439-12.656-16.782-21.22-23.794-5.659-4.634-11.037-5.175-17.276-8.15-6.031-2.876-10.61-6.946-17.454-8.145-8.36-1.464-14.878 4.674-22.831-1.26 15.897-7.064 37.913-3.979 52.715 4.843 5.584 3.329 11.084 8.682 15.946 13.02 6.67 5.949 12.461 12.689 19.049 18.682 4.155 3.779 8.649 6.123 11.964 10.919 2.867 4.145 2.769 9.631 5.611 13.874 2.396 3.578 6.174 5.97 8.037 9.962 3.128 6.704 2.554 15.392 4.772 22.526.948 3.051 3.387 5.259 4.357 8.264 1.909 5.92 1.319 12.803 3.389 18.739 1.389 3.988 4.563 7.028 6.057 11.012 1.757 4.682-.811 8.386-.818 13.159-.008 5.221 2.979 8.502 3.898 13.211.433 2.216-.786 4.58-.898 6.814-.403 7.984.024 21.427 9.921 21.975-1.382 2.42-2.363 3.061-5 4 .066 5.705-2.077 9.614-2.812 15.015-.627 4.609.082 9.345-.242 13.975-.406 5.79-1.946 11.03-1.946 17.01h8l-2-6 4-1 1 1-1 6h53c-.057-6.9-1.279-13.11 0-20h2c.974 3.88 1.592 9.16 3.995 12.46 2.167 2.97 5.28 4.03 7.005 7.54h219c20.462 0 41.564 1.51 61.961-.05 5.512-.43 10.485-5.36 16.095-5.18 3.375.12 2.834 2.82.944 4.23 3.959 1.66 8.74 1 13 1h26c4.461 0 10.424 1.02 14.671-.51 5.749-2.08 7.51-8.46 14.329-9.49-1.961 4.01-5.762 6.24-8 10h42c-5.09-4.14-14.606-7.44-21-9v-4c5.978-.63 9.383 2.09 15 2.86 4.061.55 7.982-.8 12-.59 6.069.33 16.862 5.55 20 10.73h83c-1.259-4.62-2.232-15.7-5.89-18.68-4.435-3.62-13.54-.08-18.28 1.26-6.472 1.84-12.469-.57-18.772.65-3.494.67-3.91 3.94-6.777 5.32-4.492 2.17-10.186-1.65-13.281-4.55-2.293 1.45-5.289 4.02-8.08 4.21-4.171.27-9.606-3.84-13.935-4.62-16.071-2.87-31.483-9.483-47.986-9.589-6.836-.044-20.24 2.819-23.999-4.001 7.412.932 14.578-.552 22 .17 8.242.801 16.53 3.75 24.911 2.7 6.677-.836 13.214-5.608 20.089-5.612 2.094-.001 3.932 1.224 6 1.224 4.705-.001 8.99-1.937 13.961-1.353 9.37 1.1 18.469 3.236 28.039 3.778 11.79.667 24.112.093 36 .093 2.022-5.663.452-8.334.054-14.015-.443-6.326.008-12.536-1.299-18.815-.86-4.138-2.744-8.1-3.497-12.259-1.621-8.963-1.429-18.084-2.999-27-1.142-6.49-.601-13.299-1.388-19.822-.296-2.456-1.453-4.668-1.742-7.128-.578-4.921.335-9.953-.258-14.872-.421-3.493-1.806-6.485-1.866-10.09-.093-5.538-.522-11.456.124-16.96.397-3.381 2.315-6.266 1.396-9.757-1.451-5.509-6.512-8.233-9.85-12.412-4.479-5.61-8.642-13.345-10.926-20.156-1.678-5.004-1.349-9.572-4.418-14.254-4.719-7.2-14.186-10.988-20.666-16.334-3.634-2.998-11.459-10.388-16.545-9.678-5.428.757-6.343 9.722-10.294 12.692-4.385 3.295-9.079.402-13.826 2.86 5.883 9.589 9.894 21.322 14.272 31.714 2.653 6.299 6.723 12.116 8.979 18.571 2.997 8.578 4.501 17.751 7.459 26.291 2.747 7.933 6.789 15.524 9.312 23.513 2.359 7.47 3.541 15.172 6.304 22.625 1.818 4.902 1.612 10.02 3.091 15 1.378 4.643 4.298 9.443 4.591 14.297.249 4.132-2.877 10.149-7.865 7.614-2.511-1.276-3.608-4.407-4.443-6.911-2.118-6.348-3.206-13.074-4.87-19.544-1.927-7.497-4.55-14.816-6.376-22.34-.995-4.103-.739-8.45-1.898-12.544-3.496-12.351-9.381-24.641-14.404-36.441-2.761-6.487-4.574-13.19-6.806-19.86-.823-2.458-1.875-6.275-4.636-7.253-1.933-.684-4.806.845-6.71 1.268-.144-4.865-2.409-7.678-4.04-12.076-3.059-8.244-5.576-16.726-9.925-24.384-2.516-4.43-3.509-8.645-9.035-9.54.267 8.053 7.583 15.1 9.54 23.17 1.715 7.069-4.345 12.218-4.428 18.83-.095 7.547 6.714 13.44 6.865 21.003.186 9.301-8.861 12.856-13.767 19.743-4.116 5.777-3.675 11.848-3.375 18.37.105 2.294-.977 4.402-.518 6.729 2.17 11 14.971 14.398 19.535 23.595 1.893 3.815.887 8.451 1.591 12.545 1.26 7.328 3.638 14.684 5.958 21.744.9 2.737 3.098 8.17-.704 9.864-4.011 1.788-9.343-5.414-11.144-8.208-3.245-5.036-6.854-11.073-9.267-16.544-2.657-6.021-3.788-13.313-11.286-13.841-2.134 8.089-9.952 13.058-13.791 20.296-2.242 4.227-3.219 10.332-8.383 12.135-3.549 1.24-6.435-1.078-9.876-1.248-3.114-.154-5.799 1.782-8.925 1.634-3.765-.178-7.127-1.791-11.026-1.816-4.966-.032-10.89-.844-15.713.469-3.639.99-6.691 3.575-10.375 4.42-5.395 1.239-11.468-.503-12.911 6.11 5.65 1.345 11.248.787 17 1.039 10.994.482 21.93.961 33 .961v3c-5.452 0-10.788 1.742-16 1.742-4.91 0-9.861-1.752-15-1.742-3.483.007-7.271 1.161-10.665.741-5.385-.666-17.449-3.188-21.335 1.259-3.644-2.552-7.673-1.98-12-2.001-6.429-.031-12.578-.43-19-.258-5.934.158-11.36-1.922-17.09-2.612C433.678 956.896 422.317 957 412 957v-4c15.185.042 30.853.389 46 1.83 6.134.584 12.419-.934 18 2.17 5.878-3.137 14.359-2.476 21-3-8.785-4.616-17.341-10.708-27.17-12.755-3.324-.693-10.424-.102-12.238-3.728-1.556-3.11 3.511-8.345 4.054-11.556.931-5.506-3.278-9.445-2.646-14.961-3.113-3.169-4.461-6.606-5-11 5.497-1.428 9.575-5.345 14.247-8.38 1.824-1.185 4.353-3.155 6.669-2.782 2.212.356 3.875 2.52 5.508 3.866 4.977 4.1 10.046 11.794 16.576 12.296.727 3.568-.438 7.538.568 10.841 1.256 4.125 5.07 7.382 6.717 11.445 1.662 4.098 1.557 7.444 5.715 9.714.15-7.281 2.058-14.685.522-21.961-.842-3.983-4.457-7.019-4.628-11.075-.169-4.01 5.103-7.246 4.135-10.704-.743-2.656-5.321-3.52-7.414-4.81-5.914-3.645-10.979-3.95-17.33-6.196-3.246-1.148-6.627-4.084-10.205-3.864-5.302.325-10.334 3.919-15.119 5.772-2.038.789-4.48.603-6.388 1.695-2.482 1.42-2.406 3.524-.573 5.143v2l-8 4c.405 3.355 1.034 5.698 0 9l8 4c-2.371 2.596-4.226 5.832-6.835 8.186-3.625 3.271-6.298 3.515-7.165 8.814-12.711-.372-16.403-11.644-23.514-20.012-5.807-6.835-16.702-13.339-25.486-13.988.018 2.261 1.581 9.464-1.173 10.462-3.271 1.186-6.559-5.827-7.733-7.886C375.83 886.34 374.552 877.725 363 875c-1.447-10.882-10.782-13.334-15.407-22.286-4.414-8.543-6.249-18.528-9.896-27.414-5.56-13.547-12.984-24.999-20.462-37.47-4.64-7.738-9.091-14.042-12.19-22.664-1.196-3.326-3.78-6.854-2.045-10.166-2.537-4.338-3.845-9.394-6.75-13.536-3.043-4.339-7.007-5.551-6.25-11.464 6.788 3.926 8.019 11.204 11.478 17.536 2.369 4.337 6.317 7.61 9.043 11.714 3.004 4.523 4.839 9.622 7.728 14.135 2.986 4.664 6.936 7.14 10.658 11.044 5.676 5.954 11.315 12.204 15.835 19.084 2.25 3.426 3.175 7.647 5.29 11.177 5.254 8.769 11.445 17.1 16.669 25.824 2.422 4.046 2.057 8.285 5.253 12.246 2.638 3.269 6.542 3.782 9.358 6.63 3.91 3.957 5.696 7.631 10.97 10.365 7.142 3.703 16.753 6.963 24.719 7.959 3.932.491 8.021-.192 11.909.549 6.328 1.207 10.227 5.59 17.09 5.737-1.839-4.54-5.453-5.683-7.992-9.414-4.344-6.385-6.644-14.477-12.128-20.265-4.728-4.991-10.603-6.456-15.837-10.509-2.641-2.045-4.094-5.06-6.981-6.834-3.129-1.923-6.674-2.703-9.598-5.022-2.585-2.05-5.605-4.538-7.509-7.242-2.435-3.456-4.495-8.351-8.414-10.51-4.584-2.525-10.187 1.457-15.126-2.124-6.511-4.72-3.316-13.418-8.393-18.547-3.977-4.017-10.531-1.998-13.915-6.106-1.741-2.114-1.419-4.805-2.289-7.243-1.12-3.138-4.114-4.776-4.67-8.224-1.808-11.209 3.332-28.473-10.322-34.361-2.504-1.08-5.143-1.38-7.826-1.599l-1-5c4.968-.705 8.311.883 13 2-.412-5.173-4.477-5.895-6.231-10.304-2.304-5.789.95-12.735-1.858-18.396-3.907-7.879-13.019-12.966-16.767-20.739-2.564-5.318 3.036-12.907-1.144-16.561v-2c4.564-3.988 2.484-16.649-1-21z" fill="#fdfdfd"/><path d="M484 660c2.121-1.081 2.919-1.879 4-4-2.492.97-3.146 1.475-4 4m75 4c3.741-1.528 5.472-3.26 7-7-4.728.54-6.46 2.272-7 7z" fill="#020202"/><path d="M435 660v3h5c-1.446-2.283-2.311-2.582-5-3m-83 8c1.176 4.316 3.716 6.783 8 8 1.401-6.529-1.471-9.401-8-8z" fill="#fdfdfd"/><path d="M552 667v3h3v-3h-3z" fill="#020202"/><path d="M506 683c.597 8.487 8.08 8.143 11 1-3.657-1.081-7.199-1-11-1m-77 10h5v-5c-3.064.863-4.137 1.935-5 5m46 0c3.088-.092 5.258-.572 8-2-3.493-3.672-6.897-3.054-8 2m49-3v3h3v-3h-3m161 3h4c0-1.797-.014-1.522-1-3-2.124.899-2.101.876-3 3z" fill="#fdfdfd"/><path d="M281 693c.001 10.891 2.488 20.636 8 30 3.592-8.561-1.997-21.809-5-30h-3z" fill="#020202"/><path d="M342 695c-.062 5.325-1.547 8.519-5.076 12.525-2.033 2.307-5.85 4.882-5.512 8.376.721 7.458 10.604 3.162 14.471 3.343 1.979.092 4.194 1.262 6.117 1.756-.332-4.73-4.413-12.006-8-15v-2c2.601-2.273 1.997-5.694 2-9h-4m199.667 1.333c-.445.445.611.389.666.334.445-.445-.611-.389-.666-.334M615 701h4v-4c-2.492.97-3.146 1.475-4 4m-168-3c.553 4.377.997 8.578 1 13 9.479-2.043 8.039-11.714-1-13m-18 10c-1.223 1.195-1.42 1.316-3 2 .067 6.029 1.336 10.487 8 11-.815-3.999-.253-6.982 0-11-1.58-.684-1.777-.805-3-2h-2z" fill="#fdfdfd"/><path d="M257 728h2c1.643 2.574 3.903 4.755 6 7-1.195 1.223-1.316 1.42-2 3 5.255 4.952 4.586 11.801 8.285 17.624 2.109 3.321 6.249 4.565 8.416 7.854 2.099 3.189 1.923 7.317 3.86 10.637 2.549 4.37 6.394 7.632 9.349 11.675 3.26 4.46 5.13 9.58 8.09 14.21 2.092-.406 2.02-.217 3-2h2c2.599 3.682 6.423 6.303 8.701 10.424 2.805 5.077 1.672 10.518 8.299 12.576-.102-8.686-6.653-17.555-10.406-25.3-2.187-4.514-2.791-9.778-4.774-14.415-2.295-5.368-6.119-9.601-8.681-14.723-1.803-3.605-2.545-7.011-5.429-10.068-3.209-3.401-7.424-2.805-11.08-5.218-4.022-2.655-6.493-8.433-9.126-12.395-4.956-7.457-9.621-14.56-15.545-21.305-2.168-2.469-4.723-7.096-8.694-6.004-10.643 2.926 1.018 24.111 7.735 16.428z" fill="#020202"/><path d="M562 747c-4.785-4.963-4.745-11.827-7.29-17.945-2.606-6.266-6.541-3.926-9.485.691-1.054 1.652-1.528 3.367-1.975 5.254-.642 2.713-1.615 5.3-2.25 8h-5v-5c-5.068 1.782-4.268 7.344-2.714 11.714 2.396 6.736 4.657 11.835 12.714 10.286l-2-6c3.136.222 6.684.105 9.714.954 2.433.682 4.452 2.168 7.115 1.723 5.355-.892 12.187-11.815 13.171-16.677 9.448-.105 12.678-5.756 15.665-13.925.71-1.942 2.673-4.483 1.677-6.641-2.888-6.258-9.316 4.328-10.342 6.566-4.278-1.728-10.249-8.97-14.891-8.343-2.628.356-3.131 3.045-2.961 5.269.185 2.416 1.618 4.569 1.463 7.024-.364 5.746-2.61 10.976-2.611 17.05m-81-17c1.457 1.103 1.897 1.543 3 3 3.678-1.524 6.731-3.767 10-6-4.952-5.229-11.239-4.057-13 3z" fill="#fdfdfd"/><path d="M224 730c7.705 5.539 12.193 7.994 22 8-.665-3.349-2.147-7.63-4.57-10.164-5.135-5.371-14.007-4.406-17.43 2.164z" fill="#020202"/><path d="M450 724c-1.296 1.594-1.535 2.018-2 4l5-1c-.973-1.27-1.73-2.028-3-3z" fill="#fdfdfd"/><path d="M174 740c4.37.012 8.661.921 13 .921 3.367 0 6.619-.976 10-.737 8.021.567 16.05 1.709 24-.184v-2c-10.519-3.46-21.276-10.444-32.91-7.698-2.576.608-4.589 2.444-6.844 3.725-3.269 1.856-6.003 2.203-7.246 5.973z" fill="#020202"/><path d="M491 738c4.436-.144 6.944-.924 9-5-4.024.608-6.755 1.51-9 5m16 5c5.81-.189 10.123-3.004 11-9-5.526.752-9.507 3.547-11 9m-117-7c-1.093 3.998-3.992 6.954-5 11 3.239-.872 6.612-4.888 9.883-4.686 5.6.347 8.52 7.163 14.964 5.365 3.693-1.031 1.979-4.195-.482-5.532-3.757-2.04-9.188-2.061-13.365-2.147-1.099-3.321-2.59-3.737-6-4m93 7c3.527-.518 5.022-1.536 6-5-3.197.805-4.946 1.825-6 5z" fill="#fdfdfd"/><path d="M246 740c2.296 3.616 3.925 6.332 8 8-1.701-4.185-3.438-7.017-8-8z" fill="#020202"/><path d="M424 740v4h5v-4h-5m176 11h4c-.008-2.822.568-6.996-1.742-9.127-2.565-2.365-6.541-.633-5.886 2.962.404 2.214 2.599 4.196 3.628 6.165m118 7v-2c-10.529-7.563-26.933-14.653-40.001-15.826-5.535-.496-14.817 3.837-14.341 10.737.283 4.096 6.162 5.412 9.338 6.089 8.019 1.709 16.162 8.219 23.58 11.911 2.543 1.265 7.266 4.142 10.174 3.446 5.791-1.386 8.087-10.377 11.25-14.357m17 20c-.165 2.356-.939 5.404.265 7.585 3.067 5.557 13.419 6.351 17.97 10.72 5.698 5.468 8.63 14.225 14.47 19.369 4.903 4.318 11.5 5.531 17.165 8.482 3.561 1.855 7.973 5.546 12.13 5.582 4.697.04 9.617-4.095 14.015-5.545 8.871-2.926 14.928-2.826 16.985-13.193-5.623-1.53-7.849 2.714-13 2.711-4.558-.002-9.834-5.019-9.254-9.675.363-2.915 2.686-5.107 2.936-8.072.253-2.995-1.256-5.476-2.682-7.964 15.531-7 3.948-26.303-8.174-30.258-3.737-1.219-7.42 1.009-10.826 2.258-2.444-7.031-7.965-13.54-15.286-15.53-4.065-1.105-8.48-.6-12.625-1.64-10.182-2.555-21.89-5.829-30.211 3.224-2.306 2.509-2.389 5.707-3.098 8.857-1.981 8.798-1.576 20.497 9.22 23.089m-99-34c.463 2.85 1.148 4.643 3.055 6.856 1.582 1.837 3.073 4.202 5.219 5.417 9.008 5.103 15.048-7.038 6.346-12.105-2.096-1.22-4.329-.814-6.62-.674-2.715.166-5.31.071-8 .506z" fill="#fdfdfd"/><path d="M163 744l-2 1v2c1.801.562 3.122.824 5 1-.843-1.769-1.541-2.688-3-4z" fill="#020202"/><path d="M592 751c-.143-.853-.107-2.043-.604-2.851-3.841-6.25-9.101.79-2.498 2.623.912.253 2.221.179 3.102.228m34-5c1.708 3.431 4.335 6.74 8 8-1.938-3.688-3.859-6.838-8-8z" fill="#fdfdfd"/><path d="M260 760l2 3c1.118-2.14.251-2.527-2-3m-154 7c4.626 6.489 15.05 5.472 21.91 7.835 9.965 3.432 17.973 12.537 28.09 15.165-3.02-5.642-9.437-9.891-14.92-13.056-10.52-6.071-22.409-13.689-35.08-9.944z" fill="#020202"/><path d="M292 767c.107 3.301.277 5.039 3 7-.107-3.301-.277-5.039-3-7z" fill="#fdfdfd"/><path d="M798 771c-1.103 1.457-1.543 1.897-3 3v2c2.887.528 4.375.306 7-1v-2c-1.635-.545-1.455-.365-2-2h-2z" fill="#020202"/><path d="M532 774l1 1-1-1z" fill="#fdfdfd"/><path d="M762 777c2.823 4.142 4.934 8.074 6 13l15 1c-1.663-5.1-6.603-6.475-10.299-9.924-1.824-1.703-3.372-4.786-5.946-5.433-1.752-.44-3.279.602-4.755 1.357z" fill="#020202"/><path d="M590 777l2 4h4v-4h-6z" fill="#fdfdfd"/><path d="M19 787c6.388 6.715 14.527.253 21.914 1.278 6.845.95 11.562 5.237 17.511 8.127 2.927 1.422 6.194 1.403 9.147 2.703 12.856 5.661 21.144 18.853 29.58 29.241 6.71 8.263 14.69 15.807 21.019 24.317 2.555 3.436 1.102 7.239 2.73 10.895 1.607 3.606 5.048 6.057 6.705 9.613 3.103 6.652 4.469 14.658 6.237 21.737 1.514 6.058 3.813 12.006 4.898 18.178.861 4.902.13 9.838 1.43 14.74.954 3.602 3.348 6.609 4.276 10.21.847 3.289-.122 6.624 2.553 8.961-5.08 7.252-.604 17.158-.054 25.015.687 9.817 1.089 21.174-.075 30.945-.416 3.49-2.451 6.48-2.607 10.04-.16 3.63.706 7.34.736 11h8c0-5.65 1.555-10.57 1.946-16.04.33-4.63-.379-9.349.242-13.956.409-3.029 2.279-5.293 2.955-8.174.581-2.476-.042-5.313-.143-7.83 2.936-.627 4.013-1.147 5-4-9.341-1.053-10.348-14.192-9.796-21.961.162-2.283 1.593-4.534 1.193-6.828-.819-4.71-4.241-7.973-4.217-13.211.017-3.918 2.862-7.654 1.726-11.463-1.594-5.344-5.95-9.274-7.352-14.576-1.509-5.704-1.249-12.246-3.103-17.787-1.115-3.33-3.724-5.694-4.607-9.213-1.649-6.574-1.618-14.463-4.149-20.661-2.018-4.943-6.982-7.675-9.311-12.384-1.801-3.641-2.019-8.032-4.148-11.452-3.241-5.208-8.328-7.509-12.526-11.589-7.89-7.668-14.941-15.75-23.713-22.52-3.498-2.7-6.67-6.216-10.435-8.512C58.784 783.445 33.567 778.601 19 787m776-2c-2.609 3.544-6.603 5.407-9 9 3.025.562 5.922.936 9 1-1.879 4.996-5.238 10.421 2 12 1.916-7.116 9.012-18.892-2-22m-637 6c.482 2.364.636 2.518 3 3-.973-1.27-1.73-2.027-3-3z" fill="#020202"/><path d="M832 794c1.248.685 1.548.749 3 1-1.249-.685-1.548-.749-3-1z" fill="#fdfdfd"/><path d="M3 805v2c3.423.579 4.865.397 6-3l-6 1z" fill="#020202"/><path d="M842 805v5c5.089.647 9.58 1.614 13.869 4.584 5.205 3.605 8.836 8.756 15.131 10.416-3.567-7.359-11.093-11.014-17.869-14.866-4.002-2.275-6.347-4.802-11.131-5.134m-502.333 2.333c-.445.445.611.389.666.334.445-.445-.611-.389-.666-.334z" fill="#fdfdfd"/><path d="M177 818c.972 7.471 4.107 13.668 8 20l3-1c-1.709-7.272-3.853-12.804-8-19h-3M0 821c0 10.72 3.804 22.158 16 24v8c3.936-.56 6.416-3.673 10.131-4.372 2.123-.399 4.06.72 6.039 1.283 3.986 1.132 11.823.376 13.502 5.338C46.9 858.876 43.142 862.862 44 867h2c2.04-3.901 5.69-5.519 8-9 .673 3.102.242 5.84 0 9 6.88-.994 10.296-5.659 7-12h4c-.588-3.403-1.65-4.272-5-5 4.962-9.927 18.548-7.601 27-12v-2c-9.004-6.125-16.012-4.73-26.04-3.089-4.22.69-9.212.476-11.96 4.089h-2c-5.404-7.196-16.251-5.277-24-6.429-4.551-.677-10.708-1.818-14.83-3.85C5.167 825.24 2.977 822.56 0 821m631 4c-.673 8.837.847 16.441 1.871 25.039.509 4.273-.596 8.3 4.129 9.961 0-11.086.728-24.562-3-35h-3z" fill="#020202"/><path d="M825 827c3.689 4.036 9.024 6.138 13.562 9.094 9.1 5.93 18.288 13.357 28.608 17.085 9.338 3.373 19.733 3.128 27.83 9.821 1.195-.598.977-.466 2-2 6.178 4.783 15.114 9.633 23 10-2.407-7.015-13.083-10.826-18.841-14.835-3.627-2.525-6.667-5.791-10.445-8.148-13.447-8.389-28.506-13.729-43.675-17.721-6.958-1.831-15.142-6.868-22.039-3.296m49 0c1.382 4.596 4.638 6.446 9 8-1.956-3.062-4.592-5.3-7-8h-2m-147 3c-2.84 15.299 2.758 27.708 6.545 42.17 1.536 5.868 2.248 11.972 3.751 17.869 1.409 5.533.158 11.274.833 16.872.508 4.211 2.879 8.017 3.612 12.178.975 5.534.185 11.269 1.143 16.872 1.048 6.127 3.441 12.096 4.946 18.128.953 3.817.629 7.862 1.63 11.622.79 2.967 2.759 5.468 3.704 8.378.9 2.771.68 5.715 1.561 8.487 1.429 4.498 3.847 8.397 5.515 12.724 2.8 7.27 2.366 17.49 7.814 23.37 7.552 8.16 21.976 5.33 31.946 5.33-.205-6.18-4.866-8.88-6.956-14.43-1.025-2.72-.764-5.53-1.514-8.28-2.105-7.748-5.315-15.102-5.515-23.29-.065-2.627-1.407-15.964 3.541-15.245 1.616.235 2.792 2.467 3.65 3.638 2.981 4.072 3.901 9.687 8.794 11.607 1.739-2.701 2.976-3.911 6-5 .457 5.793 2.231 11.298 2.871 17 .439 3.911-.334 7.949.389 11.83 1.407 7.56 4.758 14.4 5.74 22.17h27c-.772-5.57-3.245-10.71-4.545-16.17-.981-4.13-.661-8.417-1.871-12.544-1.798-6.132-5.288-11.792-4.584-18.286h2c.982 2.405 1.921 4.492 4.34 5.775 3.118 1.654 7.385 1.19 9.481 4.504 1.596 2.522 1.125 5.859 2.442 8.551 2.497 5.1 7.181 9.06 9.393 14.26 1.223 2.88.168 5.72 1.038 8.53.589 1.91 2.38 3.61 3.306 5.38h31c-.611-6.73-5.998-8.42-7.698-14.1-1.409-4.72-1.885-9.2-4.138-13.745-1.688-3.402-4.496-6.072-6.059-9.579-2.313-5.191-3.569-10.791-6.219-15.911-1.607-3.104-4.097-5.695-5.627-8.832-2.852-5.849-4.026-12.533-7.312-18.218-3.343-5.784-6.145-12.039-10.205-17.356-1.128-1.476-2.535-4.64-4.737-4.624-2.2.016-2.702 2.715-2.896 4.384-.645 5.537-.109 11.409-.109 16.981-3.283.555-6.638 2.065-9.996 1.343-5.549-1.193-6.786-4.965-9.97-8.812-1.649-1.992-4.17-2.948-5.824-4.999-2.241-2.776-3.493-6.254-5.858-8.949-2.288-2.607-5.119-4.579-7.237-7.373-5.604-7.394-8.827-16.701-11.829-25.38-3.391-9.802-6.095-18.82-11.115-27.96-2.002-3.645-3.208-7.876-6.109-10.946-4.32-4.571-9.626-4.75-14.773-7.649-4.737-2.668-7.609-6.844-13.289-7.275.673 9.161 10.478 15.024 16.532 20.924 2.225 2.168 3.141 5.168 5.468 7.076v2c-4.192 3.527-2.134 8.824-.724 13.286 3.113 9.847 8.149 18.606 15.739 26.087 4.025 3.969 10.323 8.318 4.985 13.627 2.404 5.824 4.549 15.642 10 19-3.215 2.48-5.947 3.634-10 4-1.57-4.95-6.114-8.035-9.711-11.559-3.646-3.571-6.598-7.642-10.738-10.734-3.23-2.413-7.111-4.467-9.43-7.877-4.39-6.456.434-13.659-.554-20.826-.748-5.431-2.228-12.505-4.636-17.414-3.229-6.583-7.987-12.103-10.838-19.014-2.048-4.967-2.07-10.441-3.781-15.406-1.802-5.235-4.901-7.871-10.312-8.17z" fill="#fdfdfd"/><path d="M0 843v65c3.695-.467 7.265-.969 11-1-1.681 2.091-4.028 5.563-1.958 8.258 3.202 4.167 9.083-1.497 12.967 2.47 4.086 4.174 8.54 16.684-1.984 15.825-2.536-.207-4.874-2.355-7.025-3.553-2.364 5.459-4.944 8.757-5 15 3.427-.517 6-1.08 8-4 1.7 2.24 2.856 4.433 4 7 8.698-2.303 14.9-8.449 10-17 4.597-2.101 7.785-3.888 13-4-.898 3.812-4.272 7.05-4.527 10.949C38.18 942.427 45.387 951.621 49 954c-3.44 2.977-6.727 5.377-11 7v2c2.623 2.136 4.968 3.762 3 7 1.56 1.888 2.804 2.928 5 4v3c-2.47.643-5.354 2.458-7.92 2.267-4.898-.364-7.837-2.226-13.08-1.267 1.063 4.522 1.996 8.274 2 13 8.92 1.304 17.248 4.597 22 13 2.738-.23 5.267-.29 8 0-2.619 6.63-7.246 9.43-14 11 .702 3.39 2.605 5.88 4 9h21c-1.373-5.84-2.415-8.56.91-14 2.008-3.29.789-8.96 3.643-11.347 3.599-3.012 9.299-.874 13.447-.692 8.349.365 16.614-1.152 25-.946 3.768.092 8.192 1.667 11.826.253 10.158-3.952 11.637-15.619 3.47-22.048-4.833-3.804-10.479-4.099-16.296-4.792-4.769-.568-7.645 1.627-12.09 2.29-4.27.638-10.76-1.502-14.624-3.302-4.84-2.255-8.645-6.267-13.572-8.37-2.814-1.201-5.698-.752-8.624-1.309-3.152-.6-5.875-2.227-9.09-2.737l5-6c4.589 3.212 13.675.219 10.057-6.521-2.424-4.515-7.95-2.696-11.767-4.873C45.33 933.923 50.92 923.015 54 915c-7.808-2.768-7.113-12.99 1.884-12.816 7.228.14 13.48 3.468 20.206 5.262 3.193.852 6.553.186 9.74 1.024 5.201 1.367 10.404 5.201 16.004 4.266 6.981-1.165 17.401-9.147 10.272-16.718-5.011-5.323-13.731-4.112-20.091-5.358-4.342-.851-7.358-4.077-11.301-5.765-3.711-1.588-10.63-1.641-14.61-1.038-4.035.612-5.547 6.313-9.974 5.499-5.31-.975-10.95-7.999-15.544-10.892-2.65-1.668-5.49-3.557-8.625-4.111-3.313-.584-6.642.576-9.487-1.736C12.794 864.754 9.957 852.04 2 843H0z" fill="#020202"/><path d="M792 855c3.372 13.784 15.152 13.611 24.022 22.043 2.713 2.579 2.234 5.482 3.99 8.443.972 1.64 2.961 2.757 3.496 4.654.694 2.463-1.544 3.716-3.442 4.555-3.892 1.722-18.42 2.663-13.872 9.887 3.457 5.488 13.421 2.602 18.717 3.692 4.956 1.02 15.096 11.71 17.81 2.537.353-1.19.253-2.585.274-3.81L843 901h4c1.76 7.064 7.869 10.735 11.726 16.463 1.602 2.379 2.217 5.253 3.828 7.649 2.717 4.04 6.672 6.742 10.015 10.174 5.925 6.081 10.41 12.682 17.895 17.142 4.248 2.532 6.447-.966 10.531-.876 4.047.09 5.013 5.035 7.723 7.175 1.639 1.293 4.082 1.777 5.169 3.702 1.36 2.412.077 5.899.432 8.556 1.039 7.78 3.514 14.919 3.681 23.015-5.438-5.684-10.77-16.144-12-24h-5c.908 3.867 2.585 6.53 0 10 1.733 3.022 4.07 6.731 4.956 10.089.76 2.881-.253 5.856 1.188 8.61 2.477 4.741 8.115 7.261 11.008 11.911 2.557 4.12 1.197 9.19 5.907 11.96 4.401 2.58 11.025 1.43 15.941 1.43-.057-3.16-.833-6.83.117-9.9 1.165-3.75 5.944-6.55 1.883-10.1v-2c1.325-1.17 2.129-2.357.383-3.86-1.919-1.65-4.33-1.989-6.114-3.987-3.826-4.285-4-8.724-6.033-13.714-1.573-3.862-5.013-6.939-7.236-10.439 8.191-6.626-4.223-11.517-3.772-17.885.226-3.183 3.087-5.99 4.498-8.691 1.726-3.302 2.118-8.69 1.323-12.32-1.156-5.275-7.948-11.721-11.623-15.528-5.861-6.07-10.921-13.218-17.51-18.536-5.882-4.747-13.718-7.581-18.916-13.04l-6 1c-.637-9.475-9.926-16.396-19-17-1.929-6.244-9.432-8.443-14.87-11.13-4.221-2.087-8.871-2.001-12.956-3.959-3.309-1.585-5.259-5.215-9.21-5.393-6.923-.313-16.682 4.743-22.964 7.482z" fill="#fdfdfd"/><path d="M256 873c-1.58-.684-1.777-.805-3-2h-2c-5.93 4.468-14.888-1.463-19.75-5.388-2.166-1.749-4.973-4.552-8.035-4.008-6.704 1.191-3.915 8.448-.911 11.752 4.236 4.658 10.826 6.049 16.607 7.733 5.675 1.654 14.309 5.29 16.775-3.273.439-1.524.295-3.255.314-4.816m33-8c-4.858 9.491 10.891 15.624 17.146 8.811 2.206-2.403 1.844-5.782 1.854-8.811-6.818.076-12.52 3.604-19 0z" fill="#020202"/><path d="M924 875c1.465 2.122 2.457 2.474 5 3-1.539-2.179-2.355-2.573-5-3z" fill="#fdfdfd"/><path d="M645 885h7v-4c-3.489.245-5.343.837-7 4z" fill="#020202"/><path d="M932 888h2c2.247 2.565 4.188 1.518 6-1-6.14-4.212-8.622.165-15.003.893-1.901.217-6.325-.429-6.821 2.277-.387 2.106 2.17 2.656 3.699 2.512 3.382-.318 8.112-2.033 10.125-4.682z" fill="#fdfdfd"/><path d="M852 885c1.273 2.554 2.434 3.743 5 5v-5h-5z" fill="#020202"/><path d="M11 904c4.404-.339 6.274-1.98 8-6-6.758-4.252-10.697-1.61-8 6m-11 4v12c3.795 1.376 4.934 2.964 5 7l-5-1v29c7.594-.897 19.455-1.672 21 8-5.568-1.237-7.606-1.028-13 1 .148.91.185 2.153.573 3.052 3.686 8.532 8.904-1.571 13.537.521 5.675 2.564-2.907 8.483-5.11 9.427.737 3.184 1.945 5.172 0 8v2c3.164 2.899 7.892 6.762 5 11v2c3.214 3.75.585 6.67 0 11-5.858-.59-6.151 5.44-5 10 4.038-1.57 5.51-5.27 10-6-.742 2.28-2.273 3.74 0 5-1.297 1.59-1.535 2.02-2 4h22l-4-9c6.866-1.02 12.233-3.91 14-11-2.863-.56-5.123-.48-8 0-1.034-3.01-2.999-3.88-5.3-5.984-5.768-5.279-8.815-6.635-16.7-7.016 0-4.765-.398-8.515-2-13 2.289-.27 4.663-.781 6.962-.357 2.38.438 4.466 2.139 6.958 1.964 2.38-.167 4.869-1.775 7.08-2.607v-3l-5-3c2.576-3.785.635-5.944-3-8v-2c4.308-1.125 7.427-3.433 11-6-2.32-3.47-4.422-7.091-6.745-10.54-1.385-2.057-3.56-3.805-3.422-6.511.197-3.864 3.626-6.982 4.167-10.949-5.315.045-8.572 1.107-13 4 .863 2.117 2.463 4.545 2.096 6.921-.719 4.656-8.188 8.56-12.096 10.079a37.915 37.915 0 0 0-3-7c-2.904 1.948-5.597 3.182-9 4 .145-6.014 3.528-9.526 5-15 4.142 3.255 13.686 6.651 14.553-2.051.294-2.949-2.615-7.183-4.302-9.47-4.239-5.745-9.655.884-13.608-3.226-2.296-2.388-.304-5.334 1.357-7.253-3.611-1.512-7.23-.7-11 0m948 5c1.249.685 1.548.749 3 1-1.248-.685-1.548-.749-3-1z" fill="#fdfdfd"/><path d="M210 916v8l4-1c-.507-2.436-1.12-4.674-2-7h-2M0 920c.139 4.172.747 6.072 5 7 .564-4.346-.724-6.087-5-7z" fill="#020202"/><path d="M552 924c1.273 5.438.361 8.563 0 14 4.337 1.652 8.469 3.921 13 5-.532-7.075-7.191-15.196-13-19m281.667 3.333c-.445.445.611.389.666.334.445-.445-.611-.389-.666-.334M953 931c.125 4.221.683 7.566 5 9-.05-4.491-.271-7.663-5-9z" fill="#fdfdfd"/><path d="M87 944c-1.986 1.794-5.782 4.309-6.223 7.151-.615 3.966 4.412 5.533 7.058 6.875 7.413 3.76 21.031 5.31 26.165-3.026-7.439-1.381-18.973 2.753-24.22-3.75-1.77-2.194-1.746-4.793-2.78-7.25m292 6c2.33 7.022 16.164 7.085 22 5-3.256-6.21-15.731-4.996-22-5m408 1c-.389 3.261-.311 5.027 3 6l-1-6h-2M0 955v69h25c.684-1.58.805-1.78 2-3-.598-1.2-.466-.98-2-2 1.297-1.59 1.535-2.02 2-4-4.796.38-6.135 3.71-10 6-.752-4.75-.506-9.39 5-10 .922-3.99 3.888-7.94 0-11v-2c4.48-3.267-1.655-9.104-5-11v-2c2.705-2.371 1.08-4.971 0-8 2.826-.744 11.092-6.462 5.4-9.607-4.917-2.717-9.082 7.462-13.501-.341-.493-.871-.656-2.144-.899-3.052 5.18-1.345 7.71-1.681 13-1-.775-9.839-13.517-9.369-21-8m28 1c-1.167 5.631 1.685 7.512 7 8-1.13-3.905-3.18-6.532-7-8m805 1c.941 3.567 2.445 5.829 6 7-.155-4.724-1.11-6.619-6-7m-270 3c4.367 4.59 11.203 2.693 17 3.089 4.307.295 8.637 1.441 12.981.764 2.772-.431 3.748-1.549 5.019-3.853-4.532 0-9.436.527-13.911-.259-7.215-1.268-14.113-3.371-21.089.259m90-2c-1.789 1.422-2.706 1.697-5 2v4c16.372.338 32.626 2.069 49 0v-4c-9.594.757-18.435.249-28 .015-4.758-.117-10.06.97-14-2.015h-2m147 66h17c-.648-8.22-4.308-15.17-5.74-23.09-.708-3.913.053-7.97-.389-11.91-.599-5.333-2.191-10.623-2.871-16-3.409.734-4.598 1.817-6 5-4.467-2.674-5.254-7.528-8.215-11.61-1.052-1.449-2.587-4.123-4.685-4.048-4.67.167-3.113 11.763-3.099 14.658.043 8.983 3.277 16.681 5.529 25.17.731 2.76.484 5.54 1.514 8.25 1.961 5.16 6.52 7.92 6.956 13.58z" fill="#020202"/><path d="M944 961c.208 6.486 7.696 16.909 14 19-1.076-7.352-9.067-11.428-11-19h-3z" fill="#fdfdfd"/><path d="M211 977h5a35.81 35.81 0 0 0-1-7c-3.576 1.437-3.877 3.286-4 7m48-3c1.751 2.448 3.004 2.775 6 3-1.136-3.422-2.57-3.784-6-3m574 3c-1.363 6.31 2.418 12.324 4.304 18.286 1.398 4.419 1.07 9.004 2.151 13.424 1.263 5.18 3.42 10.09 4.545 15.29h21c-.7-2.17-2.594-3.99-2.979-6.21-.543-3.13.205-5.56-1.316-8.62-2.531-5.1-6.983-9.08-9.442-14.259-1.236-2.606-.767-6.057-2.442-8.397-1.916-2.677-5.912-2.393-8.633-3.739-2.555-1.263-3.802-3.411-5.188-5.775h-2m-167 7v3h3v-3h-3z" fill="#020202"/><path d="M967.836 985.024c-1.943 1.786-.16 4.535 1.156 6.052 4.313 4.973 6.102 11.364 10.347 16.204 1.699 1.93 4.486 3.27 6.771 1.4 2.866-2.34.807-5.99-.025-8.766-1.614-5.392-9.958-22.507-18.249-14.89M44 990c2.163 2.277 3.885 2.784 7 3v-5c-2.724.182-4.583.735-7 2z" fill="#fdfdfd"/><path d="M363 990c1.779 5.379 8.074 4.975 13 4.999 11.448.055 23.592-1.205 34.961.13 2.46.289 4.672 1.446 7.129 1.742 10.744 1.295 22.063.42 32.895 1.183 3.111.219 5.899 1.817 9.015 1.839 6.884.048 13.234-1.364 20.015-1.839 8.876-.621 18.086-.199 26.984-.049 3.605.06 6.597 1.445 10.09 1.866 4.54.549 9.343.129 13.911.129 6.301 0 12.713-.341 19 .09 9.549.65 17.688 2.55 26-3.09-4.253-5.047-9.088-2.899-15-3.015-6.715-.133-13.224-1.36-20-.896-5.621.385-11.357 2.13-17 1.611-17.393-1.599-34.527-3.532-51.985-4.754-2.75-.192-5.291-1.688-8.015-1.688-2.417 0-4.646 1.325-7.039 1.614-6.62.799-13.329-.251-19.961.217-3.108.22-6.058 1.562-9.116 1.742-5.661.334-12.074-1.587-17.884-1.703-15.645-.312-31.347.195-47-.128m-331.557 8.769c-7.176 2.891-.988 7.991 4.325 5.491 5.636-2.65.154-7.292-4.325-5.491M126 1024h13c-1.101-4.56-3.259-7.87 0-12v-2c-2.116-2.24-2.668-3.93-3-7-4.244.37-15.777 2.97-15.468 8.88.211 4.06 4.766 7.66 5.468 12.12m90-20c-1.627 6.83-.142 13.13 0 20h13c-1.281-4.25-4.734-4.88-7.005-8.28-2.187-3.28-2.785-8.02-3.995-11.72h-2m-123 10c-5.547.41-11.243 4.65-13 10h19c-.488-3.4-1.308-6.01-3-9 4.43-1.01 8.96-1.88 13-4-5.043-5.99-13.996-4.96-16 3m515-3v4c7.188 2.74 14.457 7.17 22.039 8.66 7.864 1.55 16.959.34 24.961.34-.898-3.07-2.892-3.51-5.588-5.08-4.239-2.46-8.392-5.28-13.412-5.78-4.359-.43-8.635 1.52-13 .65-5.915-1.19-8.594-3.98-15-2.79m-26 13c5.83-.41 11.291-4.31 13-10-6.282.47-10.446 4.39-13 10m-423-6c.612 2.83 1.483 4.55 4 6l1-6-1-1-4 1m355 6c5.43 0 10.645-.01 16-1-1.656-7.59-12.692-3.83-16 1z" fill="#020202"/><path d="M55.667 1023.33c-.445.45.61.39.666.34.445-.45-.61-.39-.666-.34z" fill="#fdfdfd"/></svg>